<?xml version="1.0" encoding="utf-8"?>
<!-- Generator: Adobe Illustrator 23.0.0, SVG Export Plug-In . SVG Version: 6.00 Build 0)  -->
<svg version="1.1" id="Capa_1" xmlns="http://www.w3.org/2000/svg" xmlns:xlink="http://www.w3.org/1999/xlink" x="0px" y="0px"
	 viewBox="0 0 608.6 199.4" style="enable-background:new 0 0 608.6 199.4;" xml:space="preserve">
<style type="text/css">
	.st0{opacity:0.2;}
	.st1{fill:#3C6A41;}
	.st2{fill:#777439;}
	.st3{fill:none;stroke:#60453A;stroke-width:1.171;stroke-miterlimit:10;}
	.st4{fill:#5F453A;}
	.st5{fill:#CB8931;}
	.st6{fill:#9EA839;}
	.st7{fill:#3F6B43;stroke:#3F6B43;stroke-width:0.3777;stroke-miterlimit:10;}
	.st8{fill:#3C6A43;stroke:#3C6A43;stroke-width:0.7862;stroke-miterlimit:10;}
	.st9{fill:#CB8B38;stroke:#CB8B38;stroke-width:0.3777;stroke-miterlimit:10;}
	.st10{fill:#CB8B38;stroke:#CB8B38;stroke-width:0.7862;stroke-miterlimit:10;}
	.st11{fill:#60453A;stroke:#60453A;stroke-width:0.3777;stroke-miterlimit:10;}
	.st12{fill:#60453A;stroke:#60453A;stroke-width:0.7862;stroke-miterlimit:10;}
</style>
<g id="XMLID_499_">
	<g id="XMLID_1871_" class="st0">
		<path id="XMLID_1873_" class="st1" d="M489.6,55.7c6.1-21.2,9.2-28.1,22.1-33.3c12.8-5.1,16.9-6.3,17-9.3c0.1-3-2.6-2.4-2.6-0.1
			s4.3,6.5,14.8,7c10.5,0.5,27.3,0.4,35-0.5c-16.4,6.7-41,6.5-50,0.7c-2.9-1.9-5.3-4.5-5.3-8.1s2.3-7.4,6.8-7.4
			c4.4,0,6.8,4.2,6.8,7.8c0,3.6-0.6,10.2-15.5,13.9s-18.3,17.4-21.4,33.1c-1,5.2-2.2,6.4-5.8,11.5c-3.6,5.1-8.8,9.4-5.8,17.7
			s6.8,17.3,6.8,24.1c0,6.8-4.7,14.3-4.7,24.3c0,10-0.8,23.5,2.5,28.3c-0.5-3.8-0.6-5.1-0.6-11.7c16.8-16.4,28.8-30.2,35.5-44.3
			s6.4-18,6.3-20.3c-0.1-2.3-1.1-5.8-10.8-8.3c-9.6-2.5-14-4.7-17.3-6.6c-3.3-1.9-3.3-2.2-17.4-2s-16-7.4-16.7-9.7s-1-3.2-3.2-3.8
			c-2.3-0.6-14.7-4.5-21.1-23c-2.7-7.8,0.5-11.8,4.3-12.8c5.5-1.6,8.3,1.8,10.3,7.4c4.2,11.8,10.5,14.3,14.4,14.8
			c3.9,0.5,6.2,2.8,7.7,8.6c1.3,5,3.6,4.3,12.6,4.3c9,0,12.4,1.8,17.7,4.8s16,5.5,23.1,9c7,3.5,12.9,10.3,9,24.9
			c-8.8,33-32.9,54.8-42.4,61.6c1.1,17,1.7,23.2,1.7,29.5s-4.4,13.2-11.1,5.5c-6.7-7.7-14.3-20.6-14.3-42.5s3.5-29.8,4.2-34
			c0.7-4.2,1.3-5.9-2.3-17.1c-3.5-11.2-7.7-19.4,3.2-29.5C488.2,65.2,488.5,59.6,489.6,55.7z"/>
		<path id="XMLID_1872_" class="st2" d="M578.7,18.9c5.7-6,6-10,11.9-11.6c6-1.6,7.6-2,9.6-3.8C597.7,13.5,594.2,18.4,578.7,18.9z"
			/>
	</g>
	<line id="XMLID_1870_" class="st3" x1="402.9" y1="196.6" x2="402.9" y2="3.6"/>
	<g id="XMLID_1850_">
		<path id="XMLID_1867_" class="st4" d="M8.4,148c16.8,29.1,48.2,48.7,84.2,48.7c40.7,0,75.5-25,90-60.4c1.4-4.9-3-6.5-7.3-1.2
			c-34,41.9-74.8,49.1-111.1,18.4c25.4,9.6,49.7,16.3,71.8,7c-48.9-8-58.3-28.8-87.1-28.8C31.7,131.6,16.3,139.7,8.4,148z"/>
		<path id="XMLID_1864_" class="st4" d="M157.3,137.2c-5.9,5-12.3,10.9-24.4,18c3.4,0.7,6.8,1.3,10,1.8c7-4.2,13.9-10.2,20.4-18.5
			C166,134.9,162.6,132.7,157.3,137.2z"/>
		<path id="XMLID_1861_" class="st4" d="M126.2,153.6c11.4-5.8,17.2-10,20.3-12.8c3.3-3,1.1-4.7-4.1-1.1
			c-4.9,3.3-13.6,8.3-23.6,11.7C121.2,152.1,123.7,152.9,126.2,153.6z"/>
		<path id="XMLID_1858_" class="st4" d="M113.6,149.5c7.9-2.9,16.4-6.9,19.3-8.6c3-1.8,1.7-4.3-2.9-2c-5,2.5-15.3,5.8-23.2,7.7
			C108.8,147.6,111.1,148.6,113.6,149.5z"/>
		<path id="XMLID_1855_" class="st5" d="M77.9,93.2C79.6,78.3,89.1,63.3,99.1,54c4.3-3.9,7.9-7.3,10.9-10.3
			C105,34.5,99,25.6,92.3,17.1c8.1,7.7,15,15.4,20.9,23.4c5.1-5.2,8.4-9.4,10.7-13.7C112.6,16,97,7.4,77.4,3.6
			C85,20,85.1,27.8,79.2,58.8C77.2,69.5,76,81.8,77.9,93.2z"/>
		<path id="XMLID_1854_" class="st1" d="M45.2,51.2c-0.2,33.9,8.9,55.1,28.7,80c3.9,1.4,7.7,3.1,11.5,4.9c0.6,0.3,1.2,0.6,1.8,0.9
			c-3.5-2.8-6.8-6.1-9.2-9.2c4.3-1.4,8-3.2,11.1-5.2C77,112.3,68.7,93.1,75.3,58c0.5-2.4,0.9-4.7,1.2-6.8
			C58.6,34.3,54.6,27.6,51.2,11.6c-43.6,48-23.3,110,15.6,117.3C44.9,98.8,42.2,83.7,45.2,51.2z"/>
		<path id="XMLID_1851_" class="st6" d="M133.3,11.6c-3.7,17.7-8.2,24-31.5,45.4c-20.5,18.9-34.7,57.8,4.7,70.9
			c-3.4,4.3-8.4,8.8-13.2,12.2c2.3,1.1,4.6,2.3,6.9,3.4c27-30.8,39.2-53,39-92.3c3.1,32.5,0.3,47.6-21.6,77.7
			C156.7,121.6,176.9,59.6,133.3,11.6z"/>
	</g>
	<g id="XMLID_340_">
		<g>
			<path id="XMLID_1647_" class="st7" d="M219,40.6v13.3h-1.1V40.6H219z"/>
			<path id="XMLID_1644_" class="st7" d="M221.1,53.9c0-0.7,0.1-1.6,0.1-2.5V39.9h1.1v6h0c0.4-1.1,1.1-1.8,2.1-1.8
				c1.5,0,2.6,2,2.6,4.9c0,3.4-1.4,5.1-2.7,5.1c-0.9,0-1.6-0.5-2-1.8h0l0,1.6H221.1z M222.2,50c0,0.2,0,0.4,0.1,0.6
				c0.2,1.2,0.9,2,1.7,2c1.2,0,1.9-1.5,1.9-3.7c0-1.9-0.6-3.6-1.8-3.6c-0.8,0-1.5,0.8-1.7,2.1c0,0.2-0.1,0.4-0.1,0.7V50z"/>
			<path id="XMLID_1631_" class="st7" d="M229.1,49.4c0,2.3,1,3.3,2.1,3.3c0.8,0,1.3-0.2,1.7-0.5l0.2,1.2c-0.4,0.3-1.1,0.6-2,0.6
				c-1.9,0-3-1.9-3-4.8c0-2.9,1.1-5.2,2.9-5.2c2,0,2.5,2.7,2.5,4.5c0,0.4,0,0.6,0,0.8H229.1z M232.4,48.2c0-1.1-0.3-2.8-1.5-2.8
				c-1.1,0-1.6,1.6-1.7,2.8H232.4z"/>
			<path id="XMLID_1629_" class="st7" d="M235,47.3c0-1.1,0-2.1-0.1-3h1l0,1.9h0.1c0.3-1.3,0.9-2.1,1.7-2.1c0.1,0,0.2,0,0.3,0.1v1.6
				c-0.1,0-0.2-0.1-0.4-0.1c-0.8,0-1.3,0.9-1.5,2.2c0,0.2-0.1,0.5-0.1,0.8v5.1H235V47.3z"/>
			<path id="XMLID_1626_" class="st7" d="M244.7,49c0,3.5-1.6,5.1-3,5.1c-1.7,0-2.9-1.9-2.9-4.9c0-3.2,1.3-5.1,3-5.1
				C243.5,44.1,244.7,46.1,244.7,49z M239.8,49.1c0,2.1,0.8,3.7,1.9,3.7c1.1,0,1.9-1.6,1.9-3.7c0-1.6-0.5-3.7-1.8-3.7
				C240.4,45.4,239.8,47.3,239.8,49.1z"/>
			<path id="XMLID_1623_" class="st7" d="M249.6,53.9l-0.1-1.2h0c-0.3,0.8-1,1.4-1.9,1.4c-1.2,0-1.9-1.4-1.9-2.7
				c0-2.3,1.3-3.6,3.7-3.6v-0.2c0-0.8-0.1-2.2-1.4-2.2c-0.6,0-1.2,0.3-1.6,0.7l-0.3-1.1c0.5-0.5,1.2-0.8,2-0.8c1.9,0,2.3,2,2.3,3.9
				v3.6c0,0.8,0,1.6,0.1,2.3H249.6z M249.5,49c-1.2,0-2.6,0.3-2.6,2.2c0,1.1,0.5,1.7,1,1.7c0.8,0,1.3-0.8,1.5-1.6
				c0-0.2,0.1-0.4,0.1-0.6V49z"/>
			<path id="XMLID_1621_" class="st7" d="M252.5,46.9c0-1,0-1.8-0.1-2.6h1l0.1,1.5h0c0.3-0.9,0.9-1.8,1.9-1.8c0.8,0,1.5,0.8,1.7,1.9
				h0c0.2-0.5,0.4-0.9,0.7-1.2c0.4-0.4,0.8-0.7,1.4-0.7c0.8,0,2,0.8,2,4.1v5.6h-1.1v-5.4c0-1.8-0.4-2.9-1.3-2.9
				c-0.6,0-1.1,0.7-1.3,1.6c0,0.2-0.1,0.6-0.1,0.9v5.9h-1.1v-5.7c0-1.5-0.4-2.6-1.3-2.6c-0.7,0-1.2,0.9-1.4,1.7
				c-0.1,0.3-0.1,0.6-0.1,0.8v5.8h-1.1V46.9z"/>
			<path id="XMLID_1618_" class="st7" d="M263.8,49.4c0,2.3,1,3.3,2.1,3.3c0.8,0,1.3-0.2,1.7-0.5l0.2,1.2c-0.4,0.3-1.1,0.6-2,0.6
				c-1.9,0-3-1.9-3-4.8c0-2.9,1.1-5.2,2.9-5.2c2,0,2.5,2.7,2.5,4.5c0,0.4,0,0.6,0,0.8H263.8z M267.1,48.2c0-1.1-0.3-2.8-1.5-2.8
				c-1.1,0-1.6,1.6-1.7,2.8H267.1z"/>
			<path id="XMLID_1616_" class="st7" d="M269.7,47.3c0-1.1,0-2.1-0.1-3h1l0,1.9h0.1c0.3-1.3,0.9-2.1,1.7-2.1c0.1,0,0.2,0,0.3,0.1
				v1.6c-0.1,0-0.2-0.1-0.4-0.1c-0.8,0-1.3,0.9-1.5,2.2c0,0.2-0.1,0.5-0.1,0.8v5.1h-1.1V47.3z"/>
			<path id="XMLID_1613_" class="st7" d="M275.3,41.6c0,0.6-0.3,1.1-0.7,1.1c-0.4,0-0.7-0.5-0.7-1.1c0-0.6,0.3-1.1,0.7-1.1
				C275,40.5,275.3,41,275.3,41.6z M274,53.9v-9.6h1.1v9.6H274z"/>
			<path id="XMLID_1611_" class="st7" d="M281.5,53.5c-0.3,0.2-0.9,0.6-1.8,0.6c-1.8,0-3-2-3-4.9c0-2.9,1.3-5.1,3.3-5.1
				c0.7,0,1.2,0.3,1.5,0.5l-0.3,1.3c-0.3-0.2-0.7-0.5-1.3-0.5c-1.4,0-2.2,1.6-2.2,3.6c0,2.2,0.9,3.6,2.1,3.6c0.6,0,1-0.3,1.4-0.5
				L281.5,53.5z"/>
			<path id="XMLID_1608_" class="st7" d="M286.3,53.9l-0.1-1.2h0c-0.3,0.8-1,1.4-1.9,1.4c-1.2,0-1.9-1.4-1.9-2.7
				c0-2.3,1.3-3.6,3.7-3.6v-0.2c0-0.8-0.1-2.2-1.4-2.2c-0.6,0-1.2,0.3-1.6,0.7l-0.3-1.1c0.5-0.5,1.2-0.8,2-0.8c1.9,0,2.3,2,2.3,3.9
				v3.6c0,0.8,0,1.6,0.1,2.3H286.3z M286.2,49c-1.2,0-2.6,0.3-2.6,2.2c0,1.1,0.5,1.7,1,1.7c0.8,0,1.3-0.8,1.5-1.6
				c0-0.2,0.1-0.4,0.1-0.6V49z"/>
			<path id="XMLID_1606_" class="st7" d="M289.2,46.9c0-1,0-1.8-0.1-2.6h1l0.1,1.6h0c0.3-0.9,1-1.8,2-1.8c0.8,0,2.2,0.8,2.2,4.1v5.7
				h-1.1v-5.5c0-1.5-0.4-2.8-1.4-2.8c-0.7,0-1.3,0.8-1.5,1.8c-0.1,0.2-0.1,0.5-0.1,0.8v5.7h-1.1V46.9z"/>
			<path id="XMLID_1603_" class="st7" d="M301.9,49c0,3.5-1.6,5.1-3,5.1c-1.7,0-2.9-1.9-2.9-4.9c0-3.2,1.3-5.1,3-5.1
				C300.7,44.1,301.9,46.1,301.9,49z M297.1,49.1c0,2.1,0.8,3.7,1.9,3.7c1.1,0,1.9-1.6,1.9-3.7c0-1.6-0.5-3.7-1.8-3.7
				C297.6,45.4,297.1,47.3,297.1,49.1z"/>
			<path id="XMLID_1601_" class="st7" d="M306.7,44.3l1.3,5.6c0.1,0.6,0.3,1.4,0.4,2h0c0.1-0.6,0.2-1.3,0.4-2l1.2-5.6h1.2l-1.7,6.8
				c-0.8,3.3-1.3,5-2.1,6c-0.5,0.8-1.1,1-1.4,1.1l-0.3-1.5c0.3-0.1,0.6-0.4,1-0.8c0.3-0.4,0.7-1,0.9-1.9c0-0.2,0.1-0.3,0.1-0.4
				c0-0.1,0-0.2-0.1-0.5l-2.3-8.8H306.7z"/>
			<path id="XMLID_1598_" class="st7" d="M320.6,39.9v11.5c0,0.8,0,1.8,0,2.5h-1l0-1.7h0c-0.3,1.1-1.1,1.9-2.1,1.9
				c-1.5,0-2.6-2-2.6-4.9c0-3.2,1.3-5.1,2.7-5.1c0.9,0,1.6,0.7,1.8,1.5h0v-5.7H320.6z M319.4,48.2c0-0.2,0-0.5,0-0.7
				c-0.2-1.1-0.8-2-1.6-2c-1.1,0-1.8,1.6-1.8,3.7c0,1.9,0.6,3.5,1.8,3.5c0.7,0,1.4-0.8,1.6-2.1c0-0.2,0-0.5,0-0.8V48.2z"/>
			<path id="XMLID_1595_" class="st7" d="M323.2,49.4c0,2.3,1,3.3,2.1,3.3c0.8,0,1.3-0.2,1.7-0.5l0.2,1.2c-0.4,0.3-1.1,0.6-2,0.6
				c-1.9,0-3-1.9-3-4.8c0-2.9,1.1-5.2,2.9-5.2c2,0,2.5,2.7,2.5,4.5c0,0.4,0,0.6,0,0.8H323.2z M326.4,48.2c0-1.1-0.3-2.8-1.5-2.8
				c-1.1,0-1.6,1.6-1.7,2.8H326.4z"/>
			<path id="XMLID_1593_" class="st7" d="M329.1,39.9h1.1v14h-1.1V39.9z"/>
			<path id="XMLID_1591_" class="st7" d="M341,53.4c-0.4,0.3-1.2,0.6-2.2,0.6c-2.4,0-4.2-2.4-4.2-6.7c0-4.2,1.8-7,4.4-7
				c1.1,0,1.7,0.4,2,0.6l-0.3,1.4c-0.4-0.3-1-0.6-1.7-0.6c-2,0-3.3,2-3.3,5.5c0,3.3,1.2,5.3,3.3,5.3c0.7,0,1.4-0.2,1.8-0.6L341,53.4
				z"/>
			<path id="XMLID_1588_" class="st7" d="M345.8,53.9l-0.1-1.2h0c-0.3,0.8-1,1.4-1.9,1.4c-1.2,0-1.9-1.4-1.9-2.7
				c0-2.3,1.3-3.6,3.7-3.6v-0.2c0-0.8-0.1-2.2-1.4-2.2c-0.6,0-1.2,0.3-1.6,0.7l-0.3-1.1c0.5-0.5,1.2-0.8,2-0.8c1.9,0,2.3,2,2.3,3.9
				v3.6c0,0.8,0,1.6,0.1,2.3H345.8z M345.7,49c-1.2,0-2.6,0.3-2.6,2.2c0,1.1,0.5,1.7,1,1.7c0.8,0,1.3-0.8,1.5-1.6
				c0-0.2,0.1-0.4,0.1-0.6V49z"/>
			<path id="XMLID_1586_" class="st7" d="M348.7,47.3c0-1.1,0-2.1-0.1-3h1l0,1.9h0c0.3-1.3,0.9-2.1,1.7-2.1c0.1,0,0.2,0,0.3,0.1v1.6
				c-0.1,0-0.2-0.1-0.4-0.1c-0.8,0-1.3,0.9-1.5,2.2c0,0.2-0.1,0.5-0.1,0.8v5.1h-1.1V47.3z"/>
			<path id="XMLID_1583_" class="st7" d="M354.3,41.6c0,0.6-0.3,1.1-0.7,1.1c-0.4,0-0.7-0.5-0.7-1.1c0-0.6,0.3-1.1,0.7-1.1
				C354,40.5,354.3,41,354.3,41.6z M353,53.9v-9.6h1.1v9.6H353z"/>
			<path id="XMLID_1580_" class="st7" d="M356.1,53.9c0-0.7,0-1.6,0-2.5V39.9h1.1v6h0c0.4-1.1,1.1-1.8,2.1-1.8c1.5,0,2.6,2,2.6,4.9
				c0,3.4-1.4,5.1-2.7,5.1c-0.9,0-1.6-0.5-2-1.8h0l0,1.6H356.1z M357.3,50c0,0.2,0,0.4,0,0.6c0.2,1.2,0.9,2,1.7,2
				c1.2,0,1.9-1.5,1.9-3.7c0-1.9-0.6-3.6-1.8-3.6c-0.8,0-1.5,0.8-1.7,2.1c0,0.2-0.1,0.4-0.1,0.7V50z"/>
			<path id="XMLID_1577_" class="st7" d="M364.1,49.4c0,2.3,1,3.3,2.1,3.3c0.8,0,1.3-0.2,1.7-0.5l0.2,1.2c-0.4,0.3-1.1,0.6-2,0.6
				c-1.9,0-3-1.9-3-4.8c0-2.9,1.1-5.2,2.9-5.2c2,0,2.5,2.7,2.5,4.5c0,0.4,0,0.6,0,0.8H364.1z M367.4,48.2c0-1.1-0.3-2.8-1.5-2.8
				c-1.1,0-1.6,1.6-1.7,2.8H367.4z"/>
			<path id="XMLID_1567_" class="st7" d="M228.5,61.1v11.5c0,0.8,0,1.8,0,2.5h-1l-0.1-1.7h0c-0.3,1.1-1.1,1.9-2.1,1.9
				c-1.5,0-2.6-2-2.6-4.9c0-3.2,1.2-5.1,2.7-5.1c0.9,0,1.6,0.7,1.8,1.5h0v-5.7H228.5z M227.4,69.4c0-0.2,0-0.5-0.1-0.7
				c-0.2-1.1-0.8-2-1.6-2c-1.1,0-1.8,1.6-1.8,3.7c0,1.9,0.6,3.5,1.8,3.5c0.7,0,1.4-0.8,1.6-2.1c0-0.2,0.1-0.5,0.1-0.8V69.4z"/>
			<path id="XMLID_1564_" class="st7" d="M231.2,70.6c0,2.3,1,3.3,2.1,3.3c0.8,0,1.3-0.2,1.7-0.5l0.2,1.2c-0.4,0.3-1.1,0.6-2,0.6
				c-1.9,0-3-1.9-3-4.8c0-2.9,1.1-5.2,2.9-5.2c2,0,2.5,2.7,2.5,4.5c0,0.4,0,0.6,0,0.8H231.2z M234.4,69.4c0-1.1-0.3-2.8-1.5-2.8
				c-1.1,0-1.6,1.6-1.7,2.8H234.4z"/>
			<path id="XMLID_1561_" class="st7" d="M239.9,61.9c0.6-0.2,1.4-0.3,2.1-0.3c1.2,0,1.9,0.3,2.5,1.1c0.4,0.6,0.7,1.5,0.7,2.5
				c0,1.8-0.7,2.9-1.6,3.4v0.1c0.7,0.4,1,1.3,1.2,2.7c0.3,1.9,0.5,3.1,0.7,3.7h-1.1c-0.1-0.4-0.3-1.5-0.6-3.2
				c-0.3-1.8-0.7-2.5-1.7-2.6h-1v5.8h-1.1V61.9z M241,68h1.1c1.2,0,1.9-1,1.9-2.5c0-1.7-0.8-2.5-2-2.5c-0.5,0-0.9,0.1-1.1,0.2V68z"
				/>
			<path id="XMLID_1558_" class="st7" d="M247.5,70.6c0,2.3,1,3.3,2.1,3.3c0.8,0,1.3-0.2,1.7-0.5l0.2,1.2c-0.4,0.3-1.1,0.6-2,0.6
				c-1.9,0-3-1.9-3-4.8c0-2.9,1.1-5.2,2.9-5.2c2,0,2.5,2.7,2.5,4.5c0,0.4,0,0.6,0,0.8H247.5z M250.8,69.4c0-1.1-0.3-2.8-1.5-2.8
				c-1.1,0-1.6,1.6-1.7,2.8H250.8z"/>
			<path id="XMLID_1556_" class="st7" d="M253.2,73.3c0.3,0.3,0.9,0.7,1.5,0.7c0.8,0,1.2-0.6,1.2-1.4c0-0.8-0.3-1.3-1.1-1.8
				c-1.1-0.6-1.6-1.6-1.6-2.7c0-1.5,0.8-2.8,2.1-2.8c0.6,0,1.2,0.3,1.5,0.6l-0.3,1.3c-0.2-0.2-0.7-0.6-1.2-0.6c-0.7,0-1,0.6-1,1.3
				c0,0.8,0.4,1.1,1.2,1.6c1.1,0.6,1.6,1.5,1.6,2.9c0,1.7-0.8,2.9-2.3,2.9c-0.7,0-1.3-0.3-1.7-0.7L253.2,73.3z"/>
			<path id="XMLID_1554_" class="st7" d="M259.9,62.8v2.7h1.6v1.3h-1.6V72c0,1.2,0.2,1.9,0.8,1.9c0.3,0,0.5-0.1,0.6-0.1l0,1.3
				c-0.2,0.1-0.6,0.2-1,0.2c-0.5,0-0.9-0.3-1.2-0.7c-0.3-0.5-0.4-1.4-0.4-2.5v-5.2h-0.9v-1.3h0.9v-2.3L259.9,62.8z"/>
			<path id="XMLID_1551_" class="st7" d="M266.3,75.1l-0.1-1.2h0c-0.3,0.8-1,1.4-1.9,1.4c-1.2,0-1.9-1.4-1.9-2.7
				c0-2.3,1.3-3.6,3.7-3.6v-0.2c0-0.8-0.1-2.2-1.4-2.2c-0.6,0-1.2,0.3-1.6,0.7l-0.3-1.1c0.5-0.5,1.2-0.8,2-0.8c1.9,0,2.3,2,2.3,3.9
				v3.6c0,0.8,0,1.6,0.1,2.3H266.3z M266.1,70.2c-1.2,0-2.6,0.3-2.6,2.2c0,1.1,0.5,1.7,1,1.7c0.8,0,1.3-0.8,1.5-1.6
				c0-0.2,0.1-0.4,0.1-0.6V70.2z"/>
			<path id="XMLID_1549_" class="st7" d="M274.3,72.5c0,1,0,1.9,0,2.6h-1l-0.1-1.6h0c-0.3,0.8-0.9,1.8-2,1.8c-1,0-2.1-0.8-2.1-4.2
				v-5.6h1.1v5.3c0,1.8,0.4,3,1.4,3c0.7,0,1.3-0.8,1.5-1.6c0.1-0.3,0.1-0.6,0.1-0.9v-5.9h1.1V72.5z"/>
			<path id="XMLID_1547_" class="st7" d="M276.3,68.5c0-1.1,0-2.1-0.1-3h1l0,1.9h0.1c0.3-1.3,0.9-2.1,1.7-2.1c0.1,0,0.2,0,0.3,0.1
				V67c-0.1,0-0.2-0.1-0.4-0.1c-0.8,0-1.3,0.9-1.5,2.2c0,0.2-0.1,0.5-0.1,0.8v5.1h-1.1V68.5z"/>
			<path id="XMLID_1544_" class="st7" d="M283.9,75.1l-0.1-1.2h0c-0.3,0.8-1,1.4-1.9,1.4c-1.2,0-1.9-1.4-1.9-2.7
				c0-2.3,1.3-3.6,3.7-3.6v-0.2c0-0.8-0.1-2.2-1.4-2.2c-0.6,0-1.2,0.3-1.6,0.7l-0.3-1.1c0.5-0.5,1.2-0.8,2-0.8c1.9,0,2.3,2,2.3,3.9
				v3.6c0,0.8,0,1.6,0.1,2.3H283.9z M283.7,70.2c-1.2,0-2.6,0.3-2.6,2.2c0,1.1,0.5,1.7,1,1.7c0.8,0,1.3-0.8,1.5-1.6
				c0-0.2,0.1-0.4,0.1-0.6V70.2z"/>
			<path id="XMLID_1542_" class="st7" d="M291.1,74.7c-0.3,0.2-0.9,0.6-1.8,0.6c-1.8,0-3-2-3-4.9c0-2.9,1.3-5.1,3.3-5.1
				c0.7,0,1.2,0.3,1.5,0.5l-0.3,1.3c-0.3-0.2-0.7-0.5-1.3-0.5c-1.4,0-2.2,1.6-2.2,3.6c0,2.2,0.9,3.6,2.1,3.6c0.6,0,1-0.3,1.4-0.5
				L291.1,74.7z"/>
			<path id="XMLID_1539_" class="st7" d="M293.8,62.8c0,0.6-0.3,1.1-0.7,1.1c-0.4,0-0.7-0.5-0.7-1.1c0-0.6,0.3-1.1,0.7-1.1
				C293.5,61.7,293.8,62.2,293.8,62.8z M292.6,75.1v-9.6h1.1v9.6H292.6z"/>
			<path id="XMLID_1535_" class="st7" d="M301.2,70.2c0,3.5-1.6,5.1-3,5.1c-1.7,0-2.9-1.9-2.9-4.9c0-3.2,1.3-5.1,3-5.1
				C300,65.3,301.2,67.3,301.2,70.2z M296.4,70.3c0,2.1,0.8,3.7,1.9,3.7c1.1,0,1.9-1.6,1.9-3.7c0-1.6-0.5-3.7-1.8-3.7
				C296.9,66.6,296.4,68.5,296.4,70.3z M299.9,61.4l-1.5,2.8h-0.8l1.1-2.8H299.9z"/>
			<path id="XMLID_1533_" class="st7" d="M302.8,68.1c0-1,0-1.8-0.1-2.6h1l0.1,1.6h0c0.3-0.9,1-1.8,2-1.8c0.8,0,2.2,0.8,2.2,4.1v5.7
				h-1.1v-5.5c0-1.5-0.4-2.8-1.4-2.8c-0.7,0-1.3,0.8-1.5,1.8c-0.1,0.2-0.1,0.5-0.1,0.8v5.7h-1.1V68.1z"/>
			<path id="XMLID_1531_" class="st7" d="M317.2,68.8h-3.3v4.8h3.7v1.4h-4.8V61.8h4.6v1.4h-3.5v4.2h3.3V68.8z"/>
			<path id="XMLID_1529_" class="st7" d="M323.5,74.7c-0.3,0.2-0.9,0.6-1.8,0.6c-1.8,0-3-2-3-4.9c0-2.9,1.3-5.1,3.3-5.1
				c0.7,0,1.2,0.3,1.5,0.5l-0.3,1.3c-0.3-0.2-0.7-0.5-1.3-0.5c-1.4,0-2.2,1.6-2.2,3.6c0,2.2,0.9,3.6,2.1,3.6c0.6,0,1-0.3,1.4-0.5
				L323.5,74.7z"/>
			<path id="XMLID_1526_" class="st7" d="M330.4,70.2c0,3.5-1.6,5.1-3,5.1c-1.7,0-2.9-1.9-2.9-4.9c0-3.2,1.3-5.1,3-5.1
				C329.2,65.3,330.4,67.3,330.4,70.2z M325.6,70.3c0,2.1,0.8,3.7,1.9,3.7c1.1,0,1.9-1.6,1.9-3.7c0-1.6-0.5-3.7-1.8-3.7
				S325.6,68.5,325.6,70.3z"/>
			<path id="XMLID_1524_" class="st7" d="M332,61.1h1.1v14H332V61.1z"/>
			<path id="XMLID_1520_" class="st7" d="M340.7,70.2c0,3.5-1.6,5.1-3,5.1c-1.7,0-2.9-1.9-2.9-4.9c0-3.2,1.3-5.1,3-5.1
				C339.5,65.3,340.7,67.3,340.7,70.2z M335.8,70.3c0,2.1,0.8,3.7,1.9,3.7c1.1,0,1.9-1.6,1.9-3.7c0-1.6-0.5-3.7-1.8-3.7
				C336.4,66.6,335.8,68.5,335.8,70.3z M339.3,61.4l-1.5,2.8H337l1.1-2.8H339.3z"/>
			<path id="XMLID_1517_" class="st7" d="M347.5,65.5c0,0.7-0.1,1.5-0.1,2.6v5.5c0,2.2-0.3,3.5-0.9,4.4c-0.6,0.9-1.5,1.1-2.2,1.1
				c-0.7,0-1.5-0.3-2-0.8l0.3-1.3c0.4,0.4,1,0.8,1.8,0.8c1.1,0,2-0.9,2-3.3v-1.1h0c-0.3,0.9-1,1.6-1.9,1.6c-1.5,0-2.6-2-2.6-4.7
				c0-3.2,1.4-5.1,2.8-5.1c1.1,0,1.6,0.9,1.9,1.7h0l0.1-1.4H347.5z M346.3,69.3c0-0.3,0-0.6-0.1-0.8c-0.2-1-0.7-1.8-1.6-1.8
				c-1.1,0-1.8,1.4-1.8,3.6c0,1.9,0.6,3.4,1.8,3.4c0.7,0,1.3-0.7,1.5-1.8c0.1-0.3,0.1-0.6,0.1-0.9V69.3z"/>
			<path id="XMLID_1514_" class="st7" d="M350.6,62.8c0,0.6-0.3,1.1-0.7,1.1c-0.4,0-0.7-0.5-0.7-1.1c0-0.6,0.3-1.1,0.7-1.1
				C350.3,61.7,350.6,62.2,350.6,62.8z M349.4,75.1v-9.6h1.1v9.6H349.4z"/>
			<path id="XMLID_1512_" class="st7" d="M356.8,74.7c-0.3,0.2-0.9,0.6-1.8,0.6c-1.8,0-3-2-3-4.9c0-2.9,1.3-5.1,3.3-5.1
				c0.7,0,1.2,0.3,1.5,0.5l-0.3,1.3c-0.3-0.2-0.7-0.5-1.3-0.5c-1.4,0-2.2,1.6-2.2,3.6c0,2.2,0.9,3.6,2.1,3.6c0.6,0,1-0.3,1.4-0.5
				L356.8,74.7z"/>
			<path id="XMLID_1509_" class="st7" d="M361.7,75.1l-0.1-1.2h0c-0.3,0.8-1,1.4-1.9,1.4c-1.2,0-1.9-1.4-1.9-2.7
				c0-2.3,1.3-3.6,3.7-3.6v-0.2c0-0.8-0.1-2.2-1.4-2.2c-0.6,0-1.2,0.3-1.6,0.7l-0.3-1.1c0.5-0.5,1.2-0.8,2-0.8c1.9,0,2.3,2,2.3,3.9
				v3.6c0,0.8,0,1.6,0.1,2.3H361.7z M361.5,70.2c-1.2,0-2.6,0.3-2.6,2.2c0,1.1,0.5,1.7,1,1.7c0.8,0,1.3-0.8,1.5-1.6
				c0-0.2,0.1-0.4,0.1-0.6V70.2z"/>
		</g>
	</g>
	<g id="XMLID_316_">
		<g>
			<path id="XMLID_690_" class="st8" d="M223.9,31.2l-5.8-27.6h2.5l2.8,13.6c0.8,3.7,1.4,7.1,1.9,10.3h0.1c0.5-3.2,1.2-6.7,2-10.3
				l3-13.6h2.4l-6.3,27.6H223.9z"/>
			<path id="XMLID_688_" class="st8" d="M236.9,3.6v27.6h-2.3V3.6H236.9z"/>
			<path id="XMLID_686_" class="st8" d="M258.8,30.3c-0.8,0.7-2.5,1.3-4.7,1.3c-5,0-8.7-4.9-8.7-14c0-8.6,3.7-14.5,9.2-14.5
				c2.2,0,3.6,0.7,4.2,1.2l-0.6,2.9c-0.9-0.7-2.1-1.1-3.6-1.1c-4.1,0-6.9,4.1-6.9,11.4c0,6.8,2.5,11.1,6.8,11.1
				c1.4,0,2.8-0.4,3.7-1.1L258.8,30.3z"/>
			<path id="XMLID_683_" class="st8" d="M276.2,17.1c0,9.5-3.7,14.5-8.2,14.5c-4.7,0-7.9-5.6-7.9-14c0-8.8,3.5-14.5,8.2-14.5
				C273.1,3.1,276.2,8.9,276.2,17.1z M262.5,17.6c0,5.9,2,11.2,5.6,11.2c3.6,0,5.7-5.2,5.7-11.5c0-5.5-1.8-11.2-5.6-11.2
				C264.4,6.1,262.5,11.5,262.5,17.6z"/>
			<path id="XMLID_681_" class="st8" d="M279.2,31.2V3.6h2.5l5.7,14c1.3,3.2,2.3,6.1,3.2,9l0.1,0c-0.2-3.7-0.3-7-0.3-11.3V3.6h2.1
				v27.6h-2.3l-5.6-14c-1.2-3.1-2.4-6.2-3.3-9.2l-0.1,0c0.1,3.5,0.2,6.8,0.2,11.4v11.8H279.2z"/>
			<path id="XMLID_679_" class="st8" d="M309.8,30c-1,0.6-3,1.5-5.4,1.5c-2.7,0-4.9-1.1-6.6-3.6c-1.5-2.3-2.5-6-2.5-10.3
				c0-8.2,3.6-14.2,9.6-14.2c2,0,3.6,0.7,4.4,1.3l-0.5,2.9c-0.9-0.7-2.1-1.2-3.9-1.2c-4.3,0-7.1,4.2-7.1,11.1c0,7,2.7,11.1,6.8,11.1
				c1.5,0,2.5-0.3,3-0.7v-8.2H304v-2.9h5.8V30z"/>
			<path id="XMLID_675_" class="st8" d="M313.3,4c1.2-0.4,2.8-0.6,4.4-0.6c2.4,0,4,0.7,5.1,2.3c0.9,1.2,1.4,3.1,1.4,5.2
				c0,3.6-1.5,6.1-3.3,7V18c1.4,0.7,2.2,2.7,2.6,5.6c0.6,3.8,1,6.5,1.4,7.6h-2.4c-0.3-0.8-0.7-3.2-1.2-6.6c-0.5-3.8-1.5-5.2-3.5-5.4
				h-2.1v12h-2.3V4z M315.6,16.5h2.3c2.4,0,4-2.1,4-5.2c0-3.6-1.7-5.1-4.1-5.2c-1.1,0-1.9,0.2-2.3,0.3V16.5z"/>
			<path id="XMLID_673_" class="st8" d="M336.6,18.2h-6.9v9.9h7.6v3h-9.9V3.6h9.5v3h-7.3v8.7h6.9V18.2z"/>
			<path id="XMLID_671_" class="st8" d="M340,26.8c1,1,2.5,1.8,4.1,1.8c2.3,0,3.7-1.9,3.7-4.7c0-2.6-0.9-4.1-3.3-5.5
				c-2.9-1.6-4.7-3.9-4.7-7.8c0-4.3,2.3-7.5,5.7-7.5c1.8,0,3.1,0.7,3.9,1.4l-0.6,2.9c-0.6-0.5-1.8-1.3-3.4-1.3
				c-2.4,0-3.3,2.3-3.3,4.1c0,2.6,1.1,3.8,3.5,5.3c3,1.8,4.5,4.1,4.5,8.1c0,4.3-2,7.9-6.2,7.9c-1.7,0-3.6-0.8-4.5-1.8L340,26.8z"/>
			<path id="XMLID_658_" class="st8" d="M368.3,17.1c0,9.5-3.7,14.5-8.2,14.5c-4.7,0-7.9-5.6-7.9-14c0-8.8,3.5-14.5,8.2-14.5
				C365.2,3.1,368.3,8.9,368.3,17.1z M354.6,17.6c0,5.9,2,11.2,5.6,11.2c3.6,0,5.7-5.2,5.7-11.5c0-5.5-1.8-11.2-5.6-11.2
				C356.5,6.1,354.6,11.5,354.6,17.6z"/>
		</g>
	</g>
	<g id="XMLID_200_">
		<g>
			<path id="XMLID_1452_" class="st9" d="M220.4,141.2c0.5-0.1,1.2-0.3,2.1-0.3c1.1,0,1.9,0.4,2.4,1.1c0.5,0.6,0.7,1.6,0.7,2.8
				c0,1.2-0.2,2.2-0.7,2.8c-0.6,1-1.5,1.5-2.6,1.5c-0.3,0-0.6,0-0.9-0.1v5.3h-1.1V141.2z M221.5,147.6c0.2,0.1,0.5,0.1,0.9,0.1
				c1.3,0,2.1-1,2.1-2.8c0-1.8-0.8-2.6-2-2.6c-0.5,0-0.8,0.1-1,0.1V147.6z"/>
			<path id="XMLID_1449_" class="st9" d="M227.4,149.9c0,2.3,1,3.3,2.1,3.3c0.8,0,1.3-0.2,1.7-0.5l0.2,1.2c-0.4,0.3-1.1,0.6-2,0.6
				c-1.9,0-3-1.9-3-4.8c0-2.9,1.1-5.2,2.9-5.2c2,0,2.5,2.7,2.5,4.5c0,0.4,0,0.6,0,0.8H227.4z M230.6,148.6c0-1.1-0.3-2.8-1.5-2.8
				c-1.1,0-1.6,1.6-1.7,2.8H230.6z"/>
			<path id="XMLID_1447_" class="st9" d="M233.1,147.7c0-1.1,0-2.1-0.1-3h1l0,1.9h0.1c0.3-1.3,0.9-2.1,1.7-2.1c0.1,0,0.2,0,0.3,0.1
				v1.6c-0.1,0-0.2-0.1-0.4-0.1c-0.8,0-1.3,0.9-1.5,2.2c0,0.2-0.1,0.5-0.1,0.8v5.1h-1.1V147.7z"/>
			<path id="XMLID_1445_" class="st9" d="M242.3,151.7c0,1,0,1.9,0,2.6h-1l-0.1-1.6h0c-0.3,0.8-0.9,1.8-2,1.8c-1,0-2.1-0.8-2.1-4.2
				v-5.6h1.1v5.3c0,1.8,0.4,3,1.4,3c0.7,0,1.3-0.8,1.5-1.6c0.1-0.3,0.1-0.6,0.1-0.9v-5.9h1.1V151.7z"/>
			<path id="XMLID_1442_" class="st9" d="M247.6,154.3l-0.1-1.2h0c-0.3,0.8-1,1.4-1.9,1.4c-1.2,0-1.9-1.4-1.9-2.7
				c0-2.3,1.3-3.6,3.7-3.6V148c0-0.8-0.1-2.2-1.4-2.2c-0.6,0-1.2,0.3-1.6,0.7l-0.3-1.1c0.5-0.5,1.2-0.8,2-0.8c1.9,0,2.3,2,2.3,3.9
				v3.6c0,0.8,0,1.6,0.1,2.3H247.6z M247.4,149.4c-1.2,0-2.6,0.3-2.6,2.2c0,1.1,0.5,1.7,1,1.7c0.8,0,1.3-0.8,1.5-1.6
				c0-0.2,0.1-0.4,0.1-0.6V149.4z"/>
			<path id="XMLID_1440_" class="st9" d="M250.3,147.3c0-1,0-1.8-0.1-2.6h1l0.1,1.6h0c0.3-0.9,1-1.8,2-1.8c0.8,0,2.2,0.8,2.2,4.1
				v5.7h-1.1v-5.5c0-1.5-0.4-2.8-1.4-2.8c-0.7,0-1.3,0.8-1.5,1.8c-0.1,0.2-0.1,0.5-0.1,0.8v5.7h-1.1V147.3z"/>
			<path id="XMLID_1437_" class="st9" d="M262.8,149.5c0,3.5-1.6,5.1-3,5.1c-1.7,0-2.9-1.9-2.9-4.9c0-3.2,1.3-5.1,3-5.1
				C261.6,144.5,262.8,146.5,262.8,149.5z M258,149.6c0,2.1,0.8,3.7,1.9,3.7c1.1,0,1.9-1.6,1.9-3.7c0-1.6-0.5-3.7-1.8-3.7
				C258.5,145.8,258,147.7,258,149.6z"/>
			<path id="XMLID_1434_" class="st9" d="M272.2,140.3v11.5c0,0.8,0,1.8,0,2.5h-1l-0.1-1.7h0c-0.3,1.1-1.1,1.9-2.1,1.9
				c-1.5,0-2.6-2-2.6-4.9c0-3.2,1.2-5.1,2.7-5.1c0.9,0,1.6,0.7,1.8,1.5h0v-5.7H272.2z M271.1,148.6c0-0.2,0-0.5-0.1-0.7
				c-0.2-1.1-0.8-2-1.6-2c-1.1,0-1.8,1.6-1.8,3.7c0,1.9,0.6,3.5,1.8,3.5c0.7,0,1.4-0.8,1.6-2.1c0-0.2,0.1-0.5,0.1-0.7V148.6z"/>
			<path id="XMLID_1431_" class="st9" d="M274.6,149.9c0,2.3,1,3.3,2.1,3.3c0.8,0,1.3-0.2,1.7-0.5l0.2,1.2c-0.4,0.3-1.1,0.6-2,0.6
				c-1.9,0-3-1.9-3-4.8c0-2.9,1.1-5.2,2.9-5.2c2,0,2.5,2.7,2.5,4.5c0,0.4,0,0.6,0,0.8H274.6z M277.9,148.6c0-1.1-0.3-2.8-1.5-2.8
				c-1.1,0-1.6,1.6-1.7,2.8H277.9z"/>
			<path id="XMLID_1428_" class="st9" d="M283.1,141.2c0.6-0.2,1.4-0.3,2.1-0.3c1.2,0,1.9,0.3,2.5,1.1c0.4,0.6,0.7,1.5,0.7,2.5
				c0,1.8-0.7,2.9-1.6,3.4v0.1c0.7,0.4,1,1.3,1.2,2.7c0.3,1.9,0.5,3.1,0.7,3.7h-1.1c-0.1-0.4-0.3-1.5-0.6-3.2
				c-0.3-1.8-0.7-2.5-1.7-2.6h-1v5.8h-1.1V141.2z M284.2,147.2h1.1c1.2,0,1.9-1,1.9-2.5c0-1.7-0.8-2.5-2-2.5c-0.5,0-0.9,0.1-1.1,0.2
				V147.2z"/>
			<path id="XMLID_1425_" class="st9" d="M290.5,149.9c0,2.3,1,3.3,2.1,3.3c0.8,0,1.3-0.2,1.7-0.5l0.2,1.2c-0.4,0.3-1.1,0.6-2,0.6
				c-1.9,0-3-1.9-3-4.8c0-2.9,1.1-5.2,2.9-5.2c2,0,2.5,2.7,2.5,4.5c0,0.4,0,0.6,0,0.8H290.5z M293.7,148.6c0-1.1-0.3-2.8-1.5-2.8
				c-1.1,0-1.6,1.6-1.7,2.8H293.7z"/>
			<path id="XMLID_1423_" class="st9" d="M296,152.5c0.3,0.3,0.9,0.7,1.5,0.7c0.8,0,1.2-0.6,1.2-1.4c0-0.8-0.3-1.3-1.1-1.8
				c-1.1-0.6-1.6-1.6-1.6-2.7c0-1.5,0.8-2.8,2.1-2.8c0.6,0,1.2,0.3,1.5,0.6l-0.3,1.3c-0.2-0.2-0.7-0.6-1.2-0.6c-0.7,0-1,0.6-1,1.3
				c0,0.8,0.4,1.1,1.2,1.6c1.1,0.6,1.6,1.5,1.6,2.9c0,1.7-0.8,2.9-2.3,2.9c-0.7,0-1.3-0.3-1.7-0.7L296,152.5z"/>
			<path id="XMLID_1421_" class="st9" d="M302.5,142v2.7h1.6v1.3h-1.6v5.2c0,1.2,0.2,1.9,0.8,1.9c0.3,0,0.5-0.1,0.6-0.1l0.1,1.3
				c-0.2,0.1-0.6,0.2-1,0.2c-0.5,0-0.9-0.3-1.2-0.7c-0.3-0.5-0.4-1.4-0.4-2.5v-5.2h-0.9v-1.3h0.9v-2.3L302.5,142z"/>
			<path id="XMLID_1418_" class="st9" d="M308.8,154.3l-0.1-1.2h0c-0.3,0.8-1,1.4-1.9,1.4c-1.2,0-1.9-1.4-1.9-2.7
				c0-2.3,1.3-3.6,3.7-3.6V148c0-0.8-0.1-2.2-1.4-2.2c-0.6,0-1.2,0.3-1.6,0.7l-0.3-1.1c0.5-0.5,1.2-0.8,2-0.8c1.9,0,2.3,2,2.3,3.9
				v3.6c0,0.8,0,1.6,0.1,2.3H308.8z M308.6,149.4c-1.2,0-2.6,0.3-2.6,2.2c0,1.1,0.5,1.7,1,1.7c0.8,0,1.3-0.8,1.5-1.6
				c0-0.2,0.1-0.4,0.1-0.6V149.4z"/>
			<path id="XMLID_1416_" class="st9" d="M316.6,151.7c0,1,0,1.9,0,2.6h-1l-0.1-1.6h0c-0.3,0.8-0.9,1.8-2,1.8c-1,0-2.1-0.8-2.1-4.2
				v-5.6h1.1v5.3c0,1.8,0.4,3,1.4,3c0.7,0,1.3-0.8,1.5-1.6c0.1-0.3,0.1-0.6,0.1-0.9v-5.9h1.1V151.7z"/>
			<path id="XMLID_1414_" class="st9" d="M318.4,147.7c0-1.1,0-2.1,0-3h1l0,1.9h0.1c0.3-1.3,0.9-2.1,1.7-2.1c0.1,0,0.2,0,0.3,0.1
				v1.6c-0.1,0-0.2-0.1-0.4-0.1c-0.8,0-1.3,0.9-1.5,2.2c0,0.2,0,0.5,0,0.8v5.1h-1.1V147.7z"/>
			<path id="XMLID_1411_" class="st9" d="M325.9,154.3l-0.1-1.2h0c-0.3,0.8-1,1.4-1.9,1.4c-1.2,0-1.9-1.4-1.9-2.7
				c0-2.3,1.3-3.6,3.7-3.6V148c0-0.8-0.1-2.2-1.4-2.2c-0.6,0-1.2,0.3-1.6,0.7l-0.3-1.1c0.5-0.5,1.2-0.8,2-0.8c1.9,0,2.3,2,2.3,3.9
				v3.6c0,0.8,0,1.6,0.1,2.3H325.9z M325.7,149.4c-1.2,0-2.6,0.3-2.6,2.2c0,1.1,0.5,1.7,1,1.7c0.8,0,1.3-0.8,1.5-1.6
				c0-0.2,0.1-0.4,0.1-0.6V149.4z"/>
			<path id="XMLID_1409_" class="st9" d="M332.9,154c-0.3,0.2-0.9,0.6-1.8,0.6c-1.8,0-3-2-3-4.9c0-2.9,1.3-5.1,3.3-5.1
				c0.7,0,1.2,0.3,1.5,0.5l-0.3,1.3c-0.3-0.2-0.7-0.5-1.3-0.5c-1.4,0-2.2,1.6-2.2,3.6c0,2.2,0.9,3.6,2.1,3.6c0.6,0,1-0.3,1.4-0.5
				L332.9,154z"/>
			<path id="XMLID_1406_" class="st9" d="M335.5,142.1c0,0.6-0.3,1.1-0.7,1.1c-0.4,0-0.7-0.5-0.7-1.1c0-0.6,0.3-1.1,0.7-1.1
				C335.2,141,335.5,141.5,335.5,142.1z M334.2,154.3v-9.6h1.1v9.6H334.2z"/>
			<path id="XMLID_1402_" class="st9" d="M342.7,149.5c0,3.5-1.6,5.1-3,5.1c-1.7,0-2.9-1.9-2.9-4.9c0-3.2,1.3-5.1,3-5.1
				C341.5,144.5,342.7,146.5,342.7,149.5z M337.9,149.6c0,2.1,0.8,3.7,1.9,3.7c1.1,0,1.9-1.6,1.9-3.7c0-1.6-0.5-3.7-1.8-3.7
				C338.4,145.8,337.9,147.7,337.9,149.6z M341.4,140.6l-1.5,2.8h-0.8l1.1-2.8H341.4z"/>
			<path id="XMLID_1400_" class="st9" d="M344.1,147.3c0-1,0-1.8,0-2.6h1l0.1,1.6h0c0.3-0.9,1-1.8,2-1.8c0.8,0,2.2,0.8,2.2,4.1v5.7
				h-1.1v-5.5c0-1.5-0.4-2.8-1.4-2.8c-0.7,0-1.3,0.8-1.5,1.8c-0.1,0.2-0.1,0.5-0.1,0.8v5.7h-1.1V147.3z"/>
			<path id="XMLID_1397_" class="st9" d="M359.1,140.3v11.5c0,0.8,0,1.8,0,2.5h-1l0-1.7h0c-0.3,1.1-1.1,1.9-2.1,1.9
				c-1.5,0-2.6-2-2.6-4.9c0-3.2,1.3-5.1,2.7-5.1c0.9,0,1.6,0.7,1.8,1.5h0v-5.7H359.1z M358,148.6c0-0.2,0-0.5,0-0.7
				c-0.2-1.1-0.8-2-1.6-2c-1.1,0-1.8,1.6-1.8,3.7c0,1.9,0.6,3.5,1.8,3.5c0.7,0,1.4-0.8,1.6-2.1c0-0.2,0-0.5,0-0.7V148.6z"/>
			<path id="XMLID_1394_" class="st9" d="M361.6,149.9c0,2.3,1,3.3,2.1,3.3c0.8,0,1.3-0.2,1.7-0.5l0.2,1.2c-0.4,0.3-1.1,0.6-2,0.6
				c-1.9,0-3-1.9-3-4.8c0-2.9,1.1-5.2,2.9-5.2c2,0,2.5,2.7,2.5,4.5c0,0.4,0,0.6,0,0.8H361.6z M364.8,148.6c0-1.1-0.3-2.8-1.5-2.8
				c-1.1,0-1.6,1.6-1.7,2.8H364.8z"/>
			<path id="XMLID_1392_" class="st9" d="M231.8,169.3h-3.3v4.8h3.7v1.4h-4.8v-13.3h4.6v1.4h-3.5v4.2h3.3V169.3z"/>
			<path id="XMLID_1390_" class="st9" d="M237.9,175.2c-0.3,0.2-0.9,0.6-1.8,0.6c-1.8,0-3-2-3-4.9c0-2.9,1.3-5.1,3.3-5.1
				c0.7,0,1.2,0.3,1.5,0.5l-0.3,1.3c-0.3-0.2-0.7-0.5-1.3-0.5c-1.4,0-2.2,1.6-2.2,3.6c0,2.2,0.9,3.6,2.1,3.6c0.6,0,1-0.3,1.4-0.5
				L237.9,175.2z"/>
			<path id="XMLID_1387_" class="st9" d="M244.6,170.7c0,3.5-1.6,5.1-3,5.1c-1.7,0-2.9-1.9-2.9-4.9c0-3.2,1.3-5.1,3-5.1
				C243.5,165.7,244.6,167.7,244.6,170.7z M239.8,170.8c0,2.1,0.8,3.7,1.9,3.7c1.1,0,1.9-1.6,1.9-3.7c0-1.6-0.5-3.7-1.8-3.7
				C240.4,167,239.8,168.9,239.8,170.8z"/>
			<path id="XMLID_1385_" class="st9" d="M245.9,173.7c0.3,0.3,0.9,0.7,1.5,0.7c0.8,0,1.2-0.6,1.2-1.4c0-0.8-0.3-1.3-1.1-1.8
				c-1.1-0.6-1.6-1.6-1.6-2.7c0-1.5,0.8-2.8,2.1-2.8c0.6,0,1.2,0.3,1.5,0.6l-0.3,1.3c-0.2-0.2-0.7-0.6-1.2-0.6c-0.7,0-1,0.6-1,1.3
				c0,0.8,0.4,1.1,1.2,1.6c1.1,0.6,1.6,1.5,1.6,2.9c0,1.7-0.8,2.9-2.3,2.9c-0.7,0-1.3-0.3-1.7-0.7L245.9,173.7z"/>
			<path id="XMLID_1382_" class="st9" d="M252.3,163.3c0,0.6-0.3,1.1-0.7,1.1c-0.4,0-0.7-0.5-0.7-1.1c0-0.6,0.3-1.1,0.7-1.1
				C252,162.2,252.3,162.7,252.3,163.3z M251.1,175.5V166h1.1v9.6H251.1z"/>
			<path id="XMLID_1380_" class="st9" d="M253.9,173.7c0.3,0.3,0.9,0.7,1.5,0.7c0.8,0,1.2-0.6,1.2-1.4c0-0.8-0.3-1.3-1.1-1.8
				c-1.1-0.6-1.6-1.6-1.6-2.7c0-1.5,0.8-2.8,2.1-2.8c0.6,0,1.2,0.3,1.5,0.6l-0.3,1.3c-0.2-0.2-0.7-0.6-1.2-0.6c-0.7,0-1,0.6-1,1.3
				c0,0.8,0.4,1.1,1.2,1.6c1.1,0.6,1.6,1.5,1.6,2.9c0,1.7-0.8,2.9-2.3,2.9c-0.7,0-1.3-0.3-1.7-0.7L253.9,173.7z"/>
			<path id="XMLID_1378_" class="st9" d="M260.3,163.2v2.7h1.6v1.3h-1.6v5.2c0,1.2,0.2,1.9,0.8,1.9c0.3,0,0.5-0.1,0.6-0.1l0.1,1.3
				c-0.2,0.1-0.6,0.2-1,0.2c-0.5,0-0.9-0.3-1.2-0.7c-0.3-0.5-0.4-1.4-0.4-2.5v-5.2h-0.9V166h0.9v-2.3L260.3,163.2z"/>
			<path id="XMLID_1375_" class="st9" d="M263.7,171c0,2.3,1,3.3,2.1,3.3c0.8,0,1.3-0.2,1.7-0.5l0.2,1.2c-0.4,0.3-1.1,0.6-2,0.6
				c-1.9,0-3-1.9-3-4.8s1.1-5.2,2.9-5.2c2,0,2.5,2.7,2.5,4.5c0,0.4,0,0.6,0,0.8H263.7z M267,169.8c0-1.1-0.3-2.8-1.5-2.8
				c-1.1,0-1.6,1.6-1.7,2.8H267z"/>
			<path id="XMLID_1373_" class="st9" d="M269.4,168.5c0-1,0-1.8-0.1-2.6h1l0.1,1.5h0c0.3-0.9,0.9-1.8,1.9-1.8
				c0.8,0,1.5,0.8,1.7,1.9h0c0.2-0.5,0.4-0.9,0.7-1.2c0.4-0.4,0.8-0.7,1.4-0.7c0.8,0,2,0.8,2,4.1v5.6h-1.1v-5.4
				c0-1.8-0.4-2.9-1.3-2.9c-0.6,0-1.1,0.7-1.3,1.6c0,0.2-0.1,0.6-0.1,0.9v5.9h-1.1v-5.7c0-1.5-0.4-2.6-1.3-2.6
				c-0.7,0-1.2,0.9-1.4,1.7c-0.1,0.3-0.1,0.6-0.1,0.8v5.8h-1.1V168.5z"/>
			<path id="XMLID_1370_" class="st9" d="M283.4,175.5l-0.1-1.2h0c-0.3,0.8-1,1.4-1.9,1.4c-1.2,0-1.9-1.4-1.9-2.7
				c0-2.3,1.3-3.6,3.7-3.6v-0.2c0-0.8-0.1-2.2-1.4-2.2c-0.6,0-1.2,0.3-1.6,0.7l-0.3-1.1c0.5-0.5,1.2-0.8,2-0.8c1.9,0,2.3,2,2.3,3.9
				v3.6c0,0.8,0,1.6,0.1,2.3H283.4z M283.2,170.6c-1.2,0-2.6,0.3-2.6,2.2c0,1.1,0.5,1.7,1,1.7c0.8,0,1.3-0.8,1.5-1.6
				c0-0.2,0.1-0.4,0.1-0.6V170.6z"/>
			<path id="XMLID_1368_" class="st9" d="M285.9,173.7c0.3,0.3,0.9,0.7,1.5,0.7c0.8,0,1.2-0.6,1.2-1.4c0-0.8-0.3-1.3-1.1-1.8
				c-1.1-0.6-1.6-1.6-1.6-2.7c0-1.5,0.8-2.8,2.1-2.8c0.6,0,1.2,0.3,1.5,0.6l-0.3,1.3c-0.2-0.2-0.7-0.6-1.2-0.6c-0.7,0-1,0.6-1,1.3
				c0,0.8,0.4,1.1,1.2,1.6c1.1,0.6,1.6,1.5,1.6,2.9c0,1.7-0.8,2.9-2.3,2.9c-0.7,0-1.3-0.3-1.7-0.7L285.9,173.7z"/>
			<path id="XMLID_1365_" class="st9" d="M295.2,171.3l-0.9,4.2h-1.1l2.9-13.3h1.3l2.9,13.3h-1.2l-0.9-4.2H295.2z M297.9,170
				l-0.8-3.8c-0.2-0.9-0.3-1.7-0.4-2.4h0c-0.1,0.8-0.3,1.6-0.4,2.4l-0.8,3.8H297.9z"/>
			<path id="XMLID_1363_" class="st9" d="M301.4,168.5c0-1,0-1.8-0.1-2.6h1l0.1,1.5h0c0.3-0.9,0.9-1.8,1.9-1.8
				c0.8,0,1.5,0.8,1.7,1.9h0c0.2-0.5,0.4-0.9,0.7-1.2c0.4-0.4,0.8-0.7,1.4-0.7c0.8,0,2,0.8,2,4.1v5.6h-1.1v-5.4
				c0-1.8-0.4-2.9-1.3-2.9c-0.6,0-1.1,0.7-1.3,1.6c0,0.2-0.1,0.6-0.1,0.9v5.9h-1.1v-5.7c0-1.5-0.4-2.6-1.3-2.6
				c-0.7,0-1.2,0.9-1.4,1.7c-0.1,0.3-0.1,0.6-0.1,0.8v5.8h-1.1V168.5z"/>
			<path id="XMLID_1360_" class="st9" d="M315.3,175.5l-0.1-1.2h0c-0.3,0.8-1,1.4-1.9,1.4c-1.2,0-1.9-1.4-1.9-2.7
				c0-2.3,1.3-3.6,3.7-3.6v-0.2c0-0.8-0.1-2.2-1.4-2.2c-0.6,0-1.2,0.3-1.6,0.7l-0.3-1.1c0.5-0.5,1.2-0.8,2-0.8c1.9,0,2.3,2,2.3,3.9
				v3.6c0,0.8,0,1.6,0.1,2.3H315.3z M315.2,170.6c-1.2,0-2.6,0.3-2.6,2.2c0,1.1,0.5,1.7,1,1.7c0.8,0,1.3-0.8,1.5-1.6
				c0-0.2,0.1-0.4,0.1-0.6V170.6z"/>
			<path id="XMLID_1358_" class="st9" d="M317.4,174.5l2.8-5.6c0.3-0.5,0.5-1,0.8-1.5v0h-3.3V166h4.7l0,1.1l-2.7,5.5
				c-0.3,0.5-0.5,1-0.8,1.5v0h3.6v1.4h-5V174.5z"/>
			<path id="XMLID_1354_" class="st9" d="M328.9,170.7c0,3.5-1.6,5.1-3,5.1c-1.7,0-2.9-1.9-2.9-4.9c0-3.2,1.3-5.1,3-5.1
				C327.7,165.7,328.9,167.7,328.9,170.7z M324,170.8c0,2.1,0.8,3.7,1.9,3.7c1.1,0,1.9-1.6,1.9-3.7c0-1.6-0.5-3.7-1.8-3.7
				C324.6,167,324,168.9,324,170.8z M327.6,161.8l-1.5,2.8h-0.8l1.1-2.8H327.6z"/>
			<path id="XMLID_1352_" class="st9" d="M330.3,168.5c0-1,0-1.8,0-2.6h1l0.1,1.6h0c0.3-0.9,1-1.8,2-1.8c0.8,0,2.2,0.8,2.2,4.1v5.7
				h-1.1V170c0-1.5-0.4-2.8-1.4-2.8c-0.7,0-1.3,0.8-1.5,1.8c-0.1,0.2-0.1,0.5-0.1,0.8v5.7h-1.1V168.5z"/>
			<path id="XMLID_1349_" class="st9" d="M338.5,163.3c0,0.6-0.3,1.1-0.7,1.1c-0.4,0-0.7-0.5-0.7-1.1c0-0.6,0.3-1.1,0.7-1.1
				C338.3,162.2,338.5,162.7,338.5,163.3z M337.3,175.5V166h1.1v9.6H337.3z"/>
			<path id="XMLID_1347_" class="st9" d="M344.6,175.2c-0.3,0.2-0.9,0.6-1.8,0.6c-1.8,0-3-2-3-4.9c0-2.9,1.3-5.1,3.3-5.1
				c0.7,0,1.2,0.3,1.5,0.5l-0.3,1.3c-0.3-0.2-0.7-0.5-1.3-0.5c-1.4,0-2.2,1.6-2.2,3.6c0,2.2,0.9,3.6,2.1,3.6c0.6,0,1-0.3,1.4-0.5
				L344.6,175.2z"/>
			<path id="XMLID_1344_" class="st9" d="M351.4,170.7c0,3.5-1.6,5.1-3,5.1c-1.7,0-2.9-1.9-2.9-4.9c0-3.2,1.3-5.1,3-5.1
				C350.2,165.7,351.4,167.7,351.4,170.7z M346.5,170.8c0,2.1,0.8,3.7,1.9,3.7c1.1,0,1.9-1.6,1.9-3.7c0-1.6-0.5-3.7-1.8-3.7
				C347.1,167,346.5,168.9,346.5,170.8z"/>
			<path id="XMLID_1342_" class="st9" d="M352.6,173.7c0.3,0.3,0.9,0.7,1.5,0.7c0.8,0,1.2-0.6,1.2-1.4c0-0.8-0.3-1.3-1.1-1.8
				c-1.1-0.6-1.6-1.6-1.6-2.7c0-1.5,0.8-2.8,2.1-2.8c0.6,0,1.2,0.3,1.5,0.6l-0.3,1.3c-0.2-0.2-0.7-0.6-1.2-0.6c-0.7,0-1,0.6-1,1.3
				c0,0.8,0.4,1.1,1.2,1.6c1.1,0.6,1.6,1.5,1.6,2.9c0,1.7-0.8,2.9-2.3,2.9c-0.7,0-1.3-0.3-1.7-0.7L352.6,173.7z"/>
			<path id="XMLID_1340_" class="st9" d="M356.9,177.9c0.3-1.2,0.6-3.3,0.8-4.7l1.2-0.2c-0.3,1.7-0.8,3.9-1.2,4.8L356.9,177.9z"/>
		</g>
	</g>
	<g id="XMLID_176_">
		<g>
			<path id="XMLID_667_" class="st10" d="M233.3,103.9v27.6h-2.3v-27.6H233.3z"/>
			<path id="XMLID_665_" class="st10" d="M239.6,103.9v27.6h-2.3v-27.6H239.6z"/>
			<path id="XMLID_663_" class="st10" d="M248.8,127.1c1,1,2.5,1.8,4.1,1.8c2.3,0,3.7-1.9,3.7-4.7c0-2.6-0.9-4.1-3.3-5.5
				c-2.9-1.6-4.7-3.9-4.7-7.8c0-4.3,2.3-7.5,5.7-7.5c1.8,0,3.1,0.7,3.9,1.4l-0.6,2.9c-0.6-0.5-1.8-1.3-3.4-1.3
				c-2.4,0-3.3,2.3-3.3,4.1c0,2.6,1.1,3.8,3.5,5.3c3,1.8,4.5,4.1,4.5,8.1c0,4.3-2,7.9-6.2,7.9c-1.7,0-3.6-0.8-4.5-1.8L248.8,127.1z"
				/>
			<path id="XMLID_661_" class="st10" d="M264.3,103.9v27.6h-2.3v-27.6H264.3z"/>
			<path id="XMLID_659_" class="st10" d="M283.2,119.3c-0.1-3.8-0.3-8.5-0.3-11.9h-0.1c-0.6,3.2-1.3,6.7-2.2,10.5l-3.1,13.4h-1.7
				l-2.9-13.1c-0.8-3.9-1.5-7.5-2-10.7h-0.1c-0.1,3.4-0.2,8.1-0.3,12.2l-0.5,11.8h-2.2l1.2-27.6h2.9l3,13.3c0.7,3.4,1.3,6.4,1.8,9.3
				h0.1c0.4-2.8,1.1-5.8,1.9-9.3l3.1-13.3h2.9l1.1,27.6h-2.2L283.2,119.3z"/>
			<path id="XMLID_655_" class="st10" d="M289.4,104.2c1.1-0.3,2.5-0.5,4.4-0.5c2.3,0,3.9,0.8,4.9,2.3c1,1.3,1.5,3.3,1.5,5.8
				c0,2.5-0.5,4.5-1.4,5.9c-1.2,2-3.2,3-5.4,3c-0.7,0-1.3,0-1.8-0.2v11.1h-2.3V104.2z M291.7,117.5c0.5,0.2,1.1,0.3,1.9,0.3
				c2.7,0,4.4-2.1,4.4-5.9c0-3.6-1.7-5.4-4.2-5.4c-1,0-1.8,0.1-2.1,0.3V117.5z"/>
			<path id="XMLID_652_" class="st10" d="M318.4,117.4c0,9.5-3.7,14.5-8.2,14.5c-4.7,0-7.9-5.6-7.9-14c0-8.8,3.5-14.5,8.2-14.5
				C315.3,103.4,318.4,109.2,318.4,117.4z M304.7,117.8c0,5.9,2,11.2,5.6,11.2c3.6,0,5.7-5.2,5.7-11.5c0-5.5-1.8-11.2-5.6-11.2
				C306.6,106.3,304.7,111.8,304.7,117.8z"/>
			<path id="XMLID_626_" class="st10" d="M321,127.1c1,1,2.5,1.8,4.1,1.8c2.3,0,3.7-1.9,3.7-4.7c0-2.6-0.9-4.1-3.3-5.5
				c-2.9-1.6-4.7-3.9-4.7-7.8c0-4.3,2.3-7.5,5.7-7.5c1.8,0,3.1,0.7,3.9,1.4l-0.6,2.9c-0.6-0.5-1.8-1.3-3.4-1.3
				c-2.4,0-3.3,2.3-3.3,4.1c0,2.6,1.1,3.8,3.5,5.3c3,1.8,4.5,4.1,4.5,8.1c0,4.3-2,7.9-6.2,7.9c-1.7,0-3.6-0.8-4.5-1.8L321,127.1z"/>
			<path id="XMLID_624_" class="st10" d="M336.5,103.9v27.6h-2.3v-27.6H336.5z"/>
			<path id="XMLID_621_" class="st10" d="M355.6,117.4c0,9.5-3.7,14.5-8.2,14.5c-4.7,0-7.9-5.6-7.9-14c0-8.8,3.5-14.5,8.2-14.5
				C352.5,103.4,355.6,109.2,355.6,117.4z M341.9,117.8c0,5.9,2,11.2,5.6,11.2c3.6,0,5.7-5.2,5.7-11.5c0-5.5-1.8-11.2-5.6-11.2
				C343.8,106.3,341.9,111.8,341.9,117.8z"/>
		</g>
	</g>
	<g id="XMLID_44_">
		<g>
			<path id="XMLID_1822_" class="st11" d="M475.7,79.9c0.5-0.2,1.3-0.3,2.1-0.3c1.1,0,1.9,0.3,2.4,1.1c0.4,0.6,0.7,1.5,0.7,2.5
				c0,1.7-0.7,2.9-1.6,3.3v0.1c0.6,0.3,1,1.3,1.2,2.6c0.3,1.8,0.5,3.1,0.6,3.6H480c-0.1-0.4-0.3-1.5-0.6-3.1
				c-0.2-1.8-0.7-2.5-1.7-2.5h-1v5.6h-1.1V79.9z M476.7,85.8h1.1c1.1,0,1.9-1,1.9-2.5c0-1.7-0.8-2.4-1.9-2.4c-0.5,0-0.9,0.1-1.1,0.2
				V85.8z"/>
			<path id="XMLID_1819_" class="st11" d="M482.9,88.3c0,2.3,1,3.2,2,3.2c0.8,0,1.2-0.2,1.7-0.5l0.2,1.2c-0.4,0.3-1,0.6-2,0.6
				c-1.8,0-2.9-1.9-2.9-4.7c0-2.8,1.1-5,2.8-5c1.9,0,2.5,2.7,2.5,4.4c0,0.3,0,0.6,0,0.8H482.9z M486.1,87.1c0-1.1-0.3-2.8-1.5-2.8
				c-1.1,0-1.6,1.6-1.7,2.8H486.1z"/>
			<path id="XMLID_1817_" class="st11" d="M488.3,91c0.3,0.3,0.9,0.7,1.4,0.7c0.8,0,1.2-0.6,1.2-1.4c0-0.8-0.3-1.3-1.1-1.7
				c-1.1-0.6-1.6-1.5-1.6-2.6c0-1.5,0.8-2.7,2.1-2.7c0.6,0,1.1,0.3,1.5,0.6l-0.3,1.2c-0.2-0.2-0.7-0.5-1.2-0.5c-0.6,0-1,0.6-1,1.3
				c0,0.8,0.4,1.1,1.1,1.6c1,0.6,1.6,1.4,1.6,2.8c0,1.6-0.8,2.8-2.2,2.8c-0.7,0-1.3-0.3-1.7-0.6L488.3,91z"/>
			<path id="XMLID_1815_" class="st11" d="M494.7,80.7v2.7h1.6v1.3h-1.6v5c0,1.2,0.2,1.8,0.8,1.8c0.3,0,0.5-0.1,0.6-0.1l0,1.3
				c-0.2,0.1-0.5,0.2-1,0.2c-0.5,0-0.9-0.3-1.2-0.7c-0.3-0.5-0.4-1.3-0.4-2.4v-5.1h-0.9v-1.3h0.9v-2.2L494.7,80.7z"/>
			<path id="XMLID_1812_" class="st11" d="M500.8,92.7l-0.1-1.2h0c-0.3,0.7-1,1.4-1.8,1.4c-1.2,0-1.8-1.3-1.8-2.7
				c0-2.3,1.3-3.5,3.6-3.5v-0.2c0-0.8-0.1-2.2-1.4-2.2c-0.6,0-1.1,0.3-1.6,0.7l-0.2-1.1c0.5-0.5,1.2-0.8,2-0.8
				c1.8,0,2.3,1.9,2.3,3.8v3.5c0,0.8,0,1.6,0.1,2.2H500.8z M500.6,87.9c-1.2,0-2.5,0.3-2.5,2.1c0,1.1,0.5,1.6,1,1.6
				c0.8,0,1.3-0.8,1.4-1.6c0-0.2,0.1-0.4,0.1-0.5V87.9z"/>
			<path id="XMLID_1810_" class="st11" d="M508.4,90.1c0,1,0,1.8,0,2.5h-1l-0.1-1.5h0c-0.3,0.8-0.9,1.7-2,1.7
				c-0.9,0-2.1-0.8-2.1-4.1v-5.5h1.1v5.2c0,1.8,0.3,3,1.3,3c0.7,0,1.2-0.8,1.4-1.5c0.1-0.3,0.1-0.6,0.1-0.9v-5.7h1.1V90.1z"/>
			<path id="XMLID_1808_" class="st11" d="M510.2,86.3c0-1.1,0-2,0-2.9h1l0,1.8h0c0.3-1.3,0.9-2,1.7-2c0.1,0,0.2,0,0.3,0.1v1.6
				c-0.1,0-0.2-0.1-0.4-0.1c-0.8,0-1.3,0.9-1.5,2.2c0,0.2,0,0.5,0,0.8v5h-1.1V86.3z"/>
			<path id="XMLID_1805_" class="st11" d="M517.5,92.7l-0.1-1.2h0c-0.3,0.7-1,1.4-1.8,1.4c-1.2,0-1.8-1.3-1.8-2.7
				c0-2.3,1.3-3.5,3.6-3.5v-0.2c0-0.8-0.1-2.2-1.4-2.2c-0.6,0-1.1,0.3-1.6,0.7l-0.2-1.1c0.5-0.5,1.2-0.8,2-0.8
				c1.8,0,2.3,1.9,2.3,3.8v3.5c0,0.8,0,1.6,0.1,2.2H517.5z M517.3,87.9c-1.2,0-2.5,0.3-2.5,2.1c0,1.1,0.5,1.6,1,1.6
				c0.8,0,1.3-0.8,1.4-1.6c0-0.2,0.1-0.4,0.1-0.5V87.9z"/>
			<path id="XMLID_1803_" class="st11" d="M520.1,85.9c0-1,0-1.8,0-2.5h1l0.1,1.5h0c0.3-0.9,1-1.8,2-1.8c0.8,0,2.1,0.8,2.1,4v5.6
				h-1.1v-5.4c0-1.5-0.4-2.8-1.4-2.8c-0.7,0-1.3,0.8-1.5,1.7c0,0.2-0.1,0.5-0.1,0.8v5.6h-1.1V85.9z"/>
			<path id="XMLID_1800_" class="st11" d="M532.1,79v11.3c0,0.8,0,1.8,0,2.4h-1l0-1.6h0c-0.3,1-1.1,1.8-2,1.8
				c-1.4,0-2.6-1.9-2.6-4.7c0-3.1,1.2-5,2.7-5c0.9,0,1.5,0.7,1.8,1.4h0V79H532.1z M531,87.2c0-0.2,0-0.5,0-0.7c-0.2-1.1-0.8-2-1.6-2
				c-1.1,0-1.8,1.5-1.8,3.6c0,1.9,0.6,3.4,1.8,3.4c0.7,0,1.4-0.8,1.6-2c0-0.2,0-0.5,0-0.7V87.2z"/>
			<path id="XMLID_1797_" class="st11" d="M539.3,88c0,3.4-1.5,5-3,5c-1.6,0-2.9-1.9-2.9-4.8c0-3.1,1.3-5,3-5
				C538.1,83.2,539.3,85.1,539.3,88z M534.6,88c0,2,0.8,3.6,1.8,3.6c1,0,1.8-1.5,1.8-3.6c0-1.6-0.5-3.6-1.8-3.6
				C535.1,84.4,534.6,86.3,534.6,88z"/>
			<path id="XMLID_1795_" class="st11" d="M543.3,79h1.1v13.7h-1.1V79z"/>
			<path id="XMLID_1792_" class="st11" d="M549.5,92.7l-0.1-1.2h0c-0.3,0.7-1,1.4-1.8,1.4c-1.2,0-1.8-1.3-1.8-2.7
				c0-2.3,1.3-3.5,3.6-3.5v-0.2c0-0.8-0.1-2.2-1.4-2.2c-0.6,0-1.1,0.3-1.6,0.7l-0.2-1.1c0.5-0.5,1.2-0.8,2-0.8
				c1.8,0,2.3,1.9,2.3,3.8v3.5c0,0.8,0,1.6,0.1,2.2H549.5z M549.3,87.9c-1.2,0-2.5,0.3-2.5,2.1c0,1.1,0.5,1.6,1,1.6
				c0.8,0,1.3-0.8,1.4-1.6c0-0.2,0.1-0.4,0.1-0.5V87.9z"/>
			<path id="XMLID_1790_" class="st11" d="M483.6,113.5c-0.3,0.2-0.9,0.5-1.7,0.5c-1.8,0-3-1.9-3-4.8c0-2.9,1.3-5,3.2-5
				c0.6,0,1.2,0.2,1.5,0.5l-0.2,1.3c-0.3-0.2-0.7-0.4-1.3-0.4c-1.4,0-2.1,1.6-2.1,3.5c0,2.2,0.9,3.5,2.1,3.5c0.6,0,1-0.2,1.3-0.5
				L483.6,113.5z"/>
			<path id="XMLID_1787_" class="st11" d="M490.2,109.1c0,3.4-1.5,5-3,5c-1.6,0-2.9-1.9-2.9-4.8c0-3.1,1.3-5,3-5
				C489,104.3,490.2,106.3,490.2,109.1z M485.5,109.2c0,2,0.8,3.6,1.8,3.6c1,0,1.8-1.5,1.8-3.6c0-1.6-0.5-3.6-1.8-3.6
				C486,105.6,485.5,107.5,485.5,109.2z"/>
			<path id="XMLID_1785_" class="st11" d="M491.6,107.1c0-1,0-1.8,0-2.5h1l0.1,1.5h0c0.3-0.9,1-1.8,2-1.8c0.8,0,2.1,0.8,2.1,4v5.6
				h-1.1v-5.4c0-1.5-0.4-2.8-1.4-2.8c-0.7,0-1.3,0.8-1.5,1.7c0,0.2-0.1,0.5-0.1,0.8v5.6h-1.1V107.1z"/>
			<path id="XMLID_1782_" class="st11" d="M499,109.5c0,2.3,1,3.2,2,3.2c0.8,0,1.2-0.2,1.7-0.5l0.2,1.2c-0.4,0.3-1,0.6-2,0.6
				c-1.8,0-2.9-1.9-2.9-4.7s1.1-5,2.8-5c1.9,0,2.5,2.7,2.5,4.4c0,0.3,0,0.6,0,0.8H499z M502.2,108.3c0-1.1-0.3-2.8-1.5-2.8
				c-1.1,0-1.6,1.6-1.7,2.8H502.2z"/>
			<path id="XMLID_1780_" class="st11" d="M505.1,104.6l0.9,2c0.2,0.5,0.4,1,0.6,1.5h0c0.2-0.6,0.4-1,0.6-1.5l0.8-2h1.2l-2,4.5
				l2.1,4.8H508l-0.9-2.1c-0.2-0.5-0.4-1.1-0.6-1.6h0c-0.2,0.6-0.4,1.1-0.6,1.6l-0.9,2.1h-1.2l2.1-4.8l-2-4.6H505.1z"/>
			<path id="XMLID_1777_" class="st11" d="M511.5,101.9c0,0.6-0.3,1-0.7,1c-0.4,0-0.7-0.5-0.7-1c0-0.6,0.3-1.1,0.7-1.1
				C511.2,100.9,511.5,101.3,511.5,101.9z M510.3,113.9v-9.3h1.1v9.3H510.3z"/>
			<path id="XMLID_1773_" class="st11" d="M518.5,109.1c0,3.4-1.5,5-3,5c-1.6,0-2.9-1.9-2.9-4.8c0-3.1,1.3-5,3-5
				C517.4,104.3,518.5,106.3,518.5,109.1z M513.8,109.2c0,2,0.8,3.6,1.8,3.6c1,0,1.8-1.5,1.8-3.6c0-1.6-0.5-3.6-1.8-3.6
				C514.4,105.6,513.8,107.5,513.8,109.2z M517.2,100.5l-1.5,2.8H515l1.1-2.8H517.2z"/>
			<path id="XMLID_1771_" class="st11" d="M519.9,107.1c0-1,0-1.8,0-2.5h1l0.1,1.5h0c0.3-0.9,1-1.8,2-1.8c0.8,0,2.1,0.8,2.1,4v5.6
				h-1.1v-5.4c0-1.5-0.4-2.8-1.4-2.8c-0.7,0-1.3,0.8-1.5,1.7c0,0.2-0.1,0.5-0.1,0.8v5.6h-1.1V107.1z"/>
			<path id="XMLID_1769_" class="st11" d="M533.6,113.5c-0.3,0.2-0.9,0.5-1.7,0.5c-1.8,0-3-1.9-3-4.8c0-2.9,1.3-5,3.2-5
				c0.6,0,1.2,0.2,1.5,0.5l-0.2,1.3c-0.3-0.2-0.7-0.4-1.3-0.4c-1.4,0-2.1,1.6-2.1,3.5c0,2.2,0.9,3.5,2.1,3.5c0.6,0,1-0.2,1.3-0.5
				L533.6,113.5z"/>
			<path id="XMLID_1766_" class="st11" d="M540.2,109.1c0,3.4-1.5,5-3,5c-1.6,0-2.9-1.9-2.9-4.8c0-3.1,1.3-5,3-5
				C539.1,104.3,540.2,106.3,540.2,109.1z M535.5,109.2c0,2,0.8,3.6,1.8,3.6c1,0,1.8-1.5,1.8-3.6c0-1.6-0.5-3.6-1.8-3.6
				C536,105.6,535.5,107.5,535.5,109.2z"/>
			<path id="XMLID_1764_" class="st11" d="M541.6,107.1c0-1,0-1.8,0-2.5h1l0.1,1.5h0c0.3-0.9,1-1.8,2-1.8c0.8,0,2.1,0.8,2.1,4v5.6
				h-1.1v-5.4c0-1.5-0.4-2.8-1.4-2.8c-0.7,0-1.3,0.8-1.5,1.7c0,0.2-0.1,0.5-0.1,0.8v5.6h-1.1V107.1z"/>
			<path id="XMLID_1762_" class="st11" d="M481.2,121.4h1.1v13.7h-1.1V121.4z"/>
			<path id="XMLID_1759_" class="st11" d="M487.5,135.1l-0.1-1.2h0c-0.3,0.7-1,1.4-1.8,1.4c-1.2,0-1.8-1.3-1.8-2.7
				c0-2.3,1.3-3.5,3.6-3.5V129c0-0.8-0.1-2.2-1.4-2.2c-0.6,0-1.1,0.3-1.6,0.7l-0.2-1.1c0.5-0.5,1.2-0.8,2-0.8c1.8,0,2.3,1.9,2.3,3.8
				v3.5c0,0.8,0,1.6,0.1,2.2H487.5z M487.3,130.3c-1.2,0-2.5,0.3-2.5,2.1c0,1.1,0.5,1.6,1,1.6c0.8,0,1.3-0.8,1.4-1.6
				c0-0.2,0.1-0.4,0.1-0.5V130.3z"/>
			<path id="XMLID_1757_" class="st11" d="M492.7,128.3c0-1,0-1.8,0-2.5h1l0.1,1.5h0c0.3-0.9,1-1.8,2-1.8c0.8,0,2.1,0.8,2.1,4v5.6
				h-1.1v-5.4c0-1.5-0.4-2.8-1.4-2.8c-0.7,0-1.3,0.8-1.5,1.7c0,0.2-0.1,0.5-0.1,0.8v5.6h-1.1V128.3z"/>
			<path id="XMLID_1754_" class="st11" d="M502.9,135.1l-0.1-1.2h0c-0.3,0.7-1,1.4-1.8,1.4c-1.2,0-1.8-1.3-1.8-2.7
				c0-2.3,1.3-3.5,3.6-3.5V129c0-0.8-0.1-2.2-1.4-2.2c-0.6,0-1.1,0.3-1.6,0.7l-0.2-1.1c0.5-0.5,1.2-0.8,2-0.8c1.8,0,2.3,1.9,2.3,3.8
				v3.5c0,0.8,0,1.6,0.1,2.2H502.9z M502.7,130.3c-1.2,0-2.5,0.3-2.5,2.1c0,1.1,0.5,1.6,1,1.6c0.8,0,1.3-0.8,1.4-1.6
				c0-0.2,0.1-0.4,0.1-0.5V130.3z"/>
			<path id="XMLID_1752_" class="st11" d="M506.7,123.1v2.7h1.6v1.3h-1.6v5c0,1.2,0.2,1.8,0.8,1.8c0.3,0,0.5-0.1,0.6-0.1l0,1.3
				c-0.2,0.1-0.5,0.2-1,0.2c-0.5,0-0.9-0.3-1.2-0.7c-0.3-0.5-0.4-1.3-0.4-2.4V127h-0.9v-1.3h0.9v-2.2L506.7,123.1z"/>
			<path id="XMLID_1750_" class="st11" d="M514.5,132.5c0,1,0,1.8,0,2.5h-1l-0.1-1.5h0c-0.3,0.8-0.9,1.7-2,1.7
				c-0.9,0-2.1-0.8-2.1-4.1v-5.5h1.1v5.2c0,1.8,0.3,3,1.3,3c0.7,0,1.2-0.8,1.4-1.5c0.1-0.3,0.1-0.6,0.1-0.9v-5.7h1.1V132.5z"/>
			<path id="XMLID_1748_" class="st11" d="M516.3,128.7c0-1.1,0-2,0-2.9h1l0,1.8h0c0.3-1.3,0.9-2,1.7-2c0.1,0,0.2,0,0.3,0.1v1.6
				c-0.1,0-0.2-0.1-0.4-0.1c-0.8,0-1.3,0.9-1.5,2.2c0,0.2,0,0.5,0,0.8v5h-1.1V128.7z"/>
			<path id="XMLID_1745_" class="st11" d="M523.6,135.1l-0.1-1.2h0c-0.3,0.7-1,1.4-1.8,1.4c-1.2,0-1.8-1.3-1.8-2.7
				c0-2.3,1.3-3.5,3.6-3.5V129c0-0.8-0.1-2.2-1.4-2.2c-0.6,0-1.1,0.3-1.6,0.7l-0.2-1.1c0.5-0.5,1.2-0.8,2-0.8c1.8,0,2.3,1.9,2.3,3.8
				v3.5c0,0.8,0,1.6,0.1,2.2H523.6z M523.4,130.3c-1.2,0-2.5,0.3-2.5,2.1c0,1.1,0.5,1.6,1,1.6c0.8,0,1.3-0.8,1.4-1.6
				c0-0.2,0.1-0.4,0.1-0.5V130.3z"/>
			<path id="XMLID_1743_" class="st11" d="M526.2,121.4h1.1v13.7h-1.1V121.4z"/>
			<path id="XMLID_1740_" class="st11" d="M529.7,130.7c0,2.3,1,3.2,2,3.2c0.8,0,1.2-0.2,1.7-0.5l0.2,1.2c-0.4,0.3-1,0.6-2,0.6
				c-1.8,0-2.9-1.9-2.9-4.7c0-2.8,1.1-5,2.8-5c1.9,0,2.5,2.7,2.5,4.4c0,0.3,0,0.6,0,0.8H529.7z M532.9,129.5c0-1.1-0.3-2.8-1.5-2.8
				c-1.1,0-1.6,1.6-1.7,2.8H532.9z"/>
			<path id="XMLID_1738_" class="st11" d="M534.6,134.1l2.7-5.5c0.3-0.5,0.5-0.9,0.8-1.4v0h-3.2v-1.4h4.6l0,1.1l-2.7,5.4
				c-0.2,0.5-0.5,1-0.8,1.5v0h3.5v1.3h-4.8V134.1z"/>
			<path id="XMLID_1735_" class="st11" d="M543.9,135.1l-0.1-1.2h0c-0.3,0.7-1,1.4-1.8,1.4c-1.2,0-1.8-1.3-1.8-2.7
				c0-2.3,1.3-3.5,3.6-3.5V129c0-0.8-0.1-2.2-1.4-2.2c-0.6,0-1.1,0.3-1.6,0.7l-0.2-1.1c0.5-0.5,1.2-0.8,2-0.8c1.8,0,2.3,1.9,2.3,3.8
				v3.5c0,0.8,0,1.6,0.1,2.2H543.9z M543.7,130.3c-1.2,0-2.5,0.3-2.5,2.1c0,1.1,0.5,1.6,1,1.6c0.8,0,1.3-0.8,1.4-1.6
				c0-0.2,0.1-0.4,0.1-0.5V130.3z"/>
			<path id="XMLID_1732_" class="st11" d="M460.6,146.6c0.3-1.8,0.9-4.2,1.3-5.2l0.8-0.1c-0.3,1.3-0.7,3.6-0.8,5.1L460.6,146.6z
				 M462.7,146.6c0.3-1.8,0.9-4.2,1.3-5.2l0.8-0.1c-0.3,1.3-0.7,3.6-0.8,5.1L462.7,146.6z"/>
			<path id="XMLID_1730_" class="st11" d="M474.1,149.8c-0.1-2.1-0.2-4.5-0.1-6.4h0c-0.3,1.7-0.7,3.6-1.2,5.6l-1.7,7.2h-0.9l-1.5-7
				c-0.4-2.1-0.8-4-1.1-5.7h0c0,1.8-0.1,4.3-0.2,6.5l-0.3,6.3h-1.2l0.7-14.8h1.6l1.6,7.1c0.4,1.8,0.7,3.4,1,5h0c0.2-1.5,0.6-3.1,1-5
				l1.7-7.1h1.6l0.6,14.8h-1.2L474.1,149.8z"/>
			<path id="XMLID_1727_" class="st11" d="M481.2,156.3l-0.1-1.3h0c-0.4,0.8-1.1,1.6-2.1,1.6c-1.4,0-2.1-1.5-2.1-3
				c0-2.6,1.5-4,4.1-3.9v-0.2c0-0.9-0.2-2.5-1.5-2.5c-0.6,0-1.3,0.3-1.8,0.8l-0.3-1.3c0.6-0.6,1.4-0.9,2.2-0.9
				c2.1,0,2.6,2.2,2.6,4.3v4c0,0.9,0,1.8,0.1,2.5H481.2z M481.1,150.9c-1.3,0-2.9,0.3-2.9,2.4c0,1.3,0.5,1.8,1.2,1.8
				c0.9,0,1.4-0.9,1.6-1.8c0-0.2,0.1-0.4,0.1-0.6V150.9z"/>
			<path id="XMLID_1725_" class="st11" d="M484.2,148.5c0-1.1,0-2-0.1-2.9h1.1l0.1,1.8h0c0.3-1,1.1-2,2.2-2c0.9,0,2.4,0.9,2.4,4.5
				v6.3h-1.2v-6.1c0-1.7-0.4-3.1-1.6-3.1c-0.8,0-1.4,0.9-1.7,2c-0.1,0.2-0.1,0.6-0.1,0.9v6.4h-1.2V148.5z"/>
			<path id="XMLID_1722_" class="st11" d="M498.2,150.9c0,3.9-1.7,5.6-3.4,5.6c-1.8,0-3.3-2.1-3.3-5.5c0-3.6,1.5-5.6,3.4-5.6
				C496.9,145.4,498.2,147.6,498.2,150.9z M492.8,151c0,2.3,0.9,4.1,2.1,4.1c1.2,0,2.1-1.7,2.1-4.1c0-1.8-0.6-4.1-2-4.1
				C493.4,146.9,492.8,149,492.8,151z"/>
			<path id="XMLID_1720_" class="st11" d="M499.6,154.3c0.4,0.4,1,0.8,1.6,0.8c0.9,0,1.3-0.7,1.3-1.6c0-0.9-0.3-1.4-1.3-2
				c-1.2-0.7-1.8-1.7-1.8-3c0-1.7,0.9-3.1,2.3-3.1c0.7,0,1.3,0.3,1.7,0.7l-0.3,1.4c-0.3-0.3-0.8-0.6-1.4-0.6c-0.7,0-1.1,0.7-1.1,1.4
				c0,0.9,0.4,1.3,1.3,1.8c1.2,0.7,1.8,1.6,1.8,3.2c0,1.9-0.9,3.2-2.5,3.2c-0.7,0-1.4-0.3-1.9-0.7L499.6,154.3z"/>
			<path id="XMLID_1717_" class="st11" d="M512,156.3l-0.1-1.3h0c-0.4,0.8-1.1,1.6-2.1,1.6c-1.4,0-2.1-1.5-2.1-3
				c0-2.6,1.5-4,4.1-3.9v-0.2c0-0.9-0.2-2.5-1.5-2.5c-0.6,0-1.3,0.3-1.8,0.8l-0.3-1.3c0.6-0.6,1.4-0.9,2.2-0.9
				c2.1,0,2.6,2.2,2.6,4.3v4c0,0.9,0,1.8,0.1,2.5H512z M511.9,150.9c-1.3,0-2.9,0.3-2.9,2.4c0,1.3,0.5,1.8,1.2,1.8
				c0.9,0,1.4-0.9,1.6-1.8c0-0.2,0.1-0.4,0.1-0.6V150.9z"/>
			<path id="XMLID_1715_" class="st11" d="M518,140.7h1.2v15.6H518V140.7z"/>
			<path id="XMLID_1712_" class="st11" d="M525.1,156.3l-0.1-1.3h0c-0.4,0.8-1.1,1.6-2.1,1.6c-1.4,0-2.1-1.5-2.1-3
				c0-2.6,1.5-4,4.1-3.9v-0.2c0-0.9-0.2-2.5-1.5-2.5c-0.6,0-1.3,0.3-1.8,0.8l-0.3-1.3c0.6-0.6,1.4-0.9,2.2-0.9
				c2.1,0,2.6,2.2,2.6,4.3v4c0,0.9,0,1.8,0.1,2.5H525.1z M524.9,150.9c-1.3,0-2.9,0.3-2.9,2.4c0,1.3,0.5,1.8,1.2,1.8
				c0.9,0,1.4-0.9,1.6-1.8c0-0.2,0.1-0.4,0.1-0.6V150.9z"/>
			<path id="XMLID_1642_" class="st11" d="M532.3,143.1h-2.9v-1.6h7v1.6h-2.9v13.2h-1.2V143.1z"/>
			<path id="XMLID_1639_" class="st11" d="M538.7,142.7c0,0.7-0.3,1.2-0.8,1.2c-0.4,0-0.7-0.5-0.7-1.2c0-0.7,0.3-1.2,0.8-1.2
				C538.4,141.5,538.7,142,538.7,142.7z M537.3,156.3v-10.6h1.2v10.6H537.3z"/>
			<path id="XMLID_1636_" class="st11" d="M541.3,151.3c0,2.6,1.1,3.7,2.3,3.7c0.9,0,1.4-0.2,1.9-0.5l0.2,1.4
				c-0.4,0.3-1.2,0.7-2.3,0.7c-2.1,0-3.3-2.1-3.3-5.4c0-3.2,1.2-5.7,3.2-5.7c2.2,0,2.8,3,2.8,5c0,0.4,0,0.7,0,0.9H541.3z
				 M544.9,149.9c0-1.2-0.3-3.1-1.7-3.1c-1.2,0-1.8,1.8-1.9,3.1H544.9z"/>
			<path id="XMLID_1634_" class="st11" d="M547.6,149c0-1.2,0-2.3-0.1-3.3h1.1l0,2.1h0.1c0.3-1.4,1.1-2.3,1.9-2.3
				c0.1,0,0.2,0,0.3,0.1v1.8c-0.1,0-0.3-0.1-0.4-0.1c-0.9,0-1.5,1-1.7,2.5c0,0.3-0.1,0.6-0.1,0.9v5.7h-1.2V149z"/>
			<path id="XMLID_1576_" class="st11" d="M552.3,149c0-1.2,0-2.3-0.1-3.3h1.1l0,2.1h0.1c0.3-1.4,1.1-2.3,1.9-2.3
				c0.1,0,0.2,0,0.3,0.1v1.8c-0.1,0-0.3-0.1-0.4-0.1c-0.9,0-1.5,1-1.7,2.5c0,0.3-0.1,0.6-0.1,0.9v5.7h-1.2V149z"/>
			<path id="XMLID_1573_" class="st11" d="M560.5,156.3l-0.1-1.3h0c-0.4,0.8-1.1,1.6-2.1,1.6c-1.4,0-2.1-1.5-2.1-3
				c0-2.6,1.5-4,4.1-3.9v-0.2c0-0.9-0.2-2.5-1.5-2.5c-0.6,0-1.3,0.3-1.8,0.8l-0.3-1.3c0.6-0.6,1.4-0.9,2.2-0.9
				c2.1,0,2.6,2.2,2.6,4.3v4c0,0.9,0,1.8,0.1,2.5H560.5z M560.3,150.9c-1.3,0-2.9,0.3-2.9,2.4c0,1.3,0.5,1.8,1.2,1.8
				c0.9,0,1.4-0.9,1.6-1.8c0-0.2,0.1-0.4,0.1-0.6V150.9z"/>
			<path id="XMLID_1570_" class="st11" d="M564.6,141.3c-0.3,1.8-0.9,4.2-1.3,5.2l-0.8,0.2c0.3-1.3,0.7-3.6,0.8-5.2L564.6,141.3z
				 M566.7,141.3c-0.3,1.8-0.9,4.2-1.3,5.2l-0.8,0.2c0.3-1.3,0.7-3.6,0.8-5.2L566.7,141.3z"/>
		</g>
	</g>
	<g id="XMLID_4_">
		<g>
			<path id="XMLID_650_" class="st12" d="M436.4,68.8c1,1,2.5,1.8,4.1,1.8c2.3,0,3.7-1.9,3.7-4.7c0-2.6-0.9-4.1-3.3-5.5
				c-2.9-1.6-4.7-3.9-4.7-7.8c0-4.3,2.3-7.5,5.7-7.5c1.8,0,3.1,0.7,3.9,1.4l-0.6,2.9c-0.6-0.5-1.8-1.3-3.4-1.3
				c-2.4,0-3.3,2.3-3.3,4.1c0,2.6,1.1,3.8,3.5,5.3c3,1.8,4.5,4.1,4.5,8.1c0,4.3-2,7.9-6.2,7.9c-1.7,0-3.6-0.8-4.5-1.8L436.4,68.8z"
				/>
			<path id="XMLID_648_" class="st12" d="M451.9,45.6v27.6h-2.3V45.6H451.9z"/>
			<path id="XMLID_645_" class="st12" d="M458.7,64.5l-1.8,8.7h-2.4l6-27.6h2.7l6,27.6h-2.4l-1.9-8.7H458.7z M464.5,61.7l-1.7-7.9
				c-0.4-1.8-0.7-3.4-0.9-5h-0.1c-0.3,1.6-0.5,3.3-0.9,5l-1.7,8H464.5z"/>
			<path id="XMLID_643_" class="st12" d="M483.8,72.2c-0.8,0.7-2.5,1.3-4.7,1.3c-5,0-8.7-4.9-8.7-14c0-8.6,3.7-14.5,9.2-14.5
				c2.2,0,3.6,0.7,4.2,1.2l-0.5,2.9c-0.9-0.7-2.1-1.1-3.6-1.1c-4.1,0-6.9,4.1-6.9,11.4c0,6.8,2.5,11.1,6.8,11.1
				c1.4,0,2.8-0.4,3.7-1.1L483.8,72.2z"/>
			<path id="XMLID_640_" class="st12" d="M486.7,45.9c1.2-0.4,2.8-0.6,4.4-0.6c2.4,0,4,0.7,5.1,2.3c0.9,1.2,1.4,3.1,1.4,5.2
				c0,3.6-1.5,6.1-3.3,7V60c1.4,0.7,2.2,2.7,2.6,5.6c0.6,3.8,1,6.5,1.4,7.6h-2.4c-0.3-0.8-0.7-3.2-1.2-6.6c-0.5-3.8-1.5-5.2-3.5-5.4
				H489v12h-2.3V45.9z M489,58.5h2.3c2.4,0,4-2.1,4-5.2c0-3.6-1.7-5.1-4.1-5.2c-1.1,0-1.9,0.2-2.3,0.3V58.5z"/>
			<path id="XMLID_638_" class="st12" d="M509.9,60.2h-6.9v9.9h7.6v3h-9.9V45.6h9.5v3h-7.3v8.7h6.9V60.2z"/>
			<path id="XMLID_636_" class="st12" d="M518.4,73.1v-2.2l1.8-2.7c4.3-6.5,6.3-9.9,6.3-13.9c0-2.7-0.8-5.2-3.4-5.2
				c-1.5,0-2.8,1.2-3.6,2.3l-0.7-2.5c1.2-1.6,2.9-2.7,4.8-2.7c3.7,0,5.2,3.9,5.2,7.7c0,4.9-2.3,8.9-5.9,14.3l-1.4,2v0.1h7.6v3H518.4
				z"/>
			<path id="XMLID_633_" class="st12" d="M543.2,59.6c0,9-2.1,14-5.9,14c-3.3,0-5.6-4.9-5.6-13.7c0-8.9,2.5-13.8,5.9-13.8
				C541.1,46.1,543.2,51.1,543.2,59.6z M533.9,60c0,6.9,1.4,10.8,3.5,10.8c2.4,0,3.5-4.3,3.5-11.1c0-6.5-1.1-10.8-3.5-10.8
				C535.4,48.9,533.9,52.7,533.9,60z"/>
			<path id="XMLID_631_" class="st12" d="M550.3,49.9L550.3,49.9l-3,2.5l-0.4-2.7l3.7-3.1h2v26.6h-2.2V49.9z"/>
			<path id="XMLID_628_" class="st12" d="M560.1,70.6c0.5,0.1,1.1,0,1.9-0.1c1.3-0.3,2.6-1.1,3.6-2.6c1.1-1.6,1.9-3.9,2.3-7.1h-0.1
				c-0.9,1.8-2.3,2.9-4,2.9c-3.1,0-5-3.6-5-8.1c0-5,2.3-9.5,5.8-9.5c3.5,0,5.6,4.4,5.6,11.2c0,5.9-1.3,9.9-2.9,12.5
				c-1.3,2-3.1,3.2-4.9,3.6c-0.8,0.2-1.6,0.2-2.1,0.2V70.6z M560.9,55.3c0,3.3,1.3,5.6,3.3,5.6c1.5,0,2.7-1.2,3.4-2.8
				c0.1-0.3,0.2-0.7,0.2-1.3c0-4.5-1.1-8-3.5-8C562.3,48.8,560.9,51.5,560.9,55.3z"/>
		</g>
	</g>
</g>
</svg>
